<?xml version="1.0" encoding="UTF-8" standalone="no"?>
<!-- Created with Inkscape (http://www.inkscape.org/) -->

<svg
   width="23.222631mm"
   height="22.85692mm"
   viewBox="0 0 23.222631 22.85692"
   version="1.1"
   id="svg1"
   inkscape:version="1.3 (0e150ed, 2023-07-21)"
   sodipodi:docname="codevivo_icon_white.svg"
   xmlns:inkscape="http://www.inkscape.org/namespaces/inkscape"
   xmlns:sodipodi="http://sodipodi.sourceforge.net/DTD/sodipodi-0.dtd"
   xmlns="http://www.w3.org/2000/svg"
   xmlns:svg="http://www.w3.org/2000/svg">
  <sodipodi:namedview
     id="namedview1"
     pagecolor="#000000"
     bordercolor="#000000"
     borderopacity="0.25"
     inkscape:showpageshadow="2"
     inkscape:pageopacity="0.0"
     inkscape:pagecheckerboard="0"
     inkscape:deskcolor="#d1d1d1"
     inkscape:document-units="mm"
     inkscape:zoom="0.29734127"
     inkscape:cx="20.178834"
     inkscape:cy="65.581209"
     inkscape:window-width="2560"
     inkscape:window-height="1412"
     inkscape:window-x="0"
     inkscape:window-y="28"
     inkscape:window-maximized="0"
     inkscape:current-layer="layer1" />
  <defs
     id="defs1" />
  <g
     inkscape:label="Layer 1"
     inkscape:groupmode="layer"
     id="layer1"
     transform="translate(-99.747945,-130.94418)">
    <path
       id="path51"
       style="display:inline;fill:#ffffff;fill-opacity:1;fill-rule:evenodd;stroke:#ffffff;stroke-width:0.3;stroke-dasharray:none;stroke-opacity:1"
       inkscape:label="Outer Circle Black"
       d="m 110.10731,131.13862 c -3.09829,0.32172 -5.9298,1.9012 -7.83131,4.36841 -0.10194,0.13226 -0.11681,0.36088 -0.0372,0.50769 l 0.0591,0.10886 c 0.0796,0.14679 0.22038,0.15387 0.31871,0.0189 1.77462,-2.43601 4.49489,-4.01176 7.49095,-4.33907 0.166,-0.0181 0.30099,-0.16392 0.30099,-0.33091 v -0.0587 c 0,-0.167 -0.13509,-0.29245 -0.30119,-0.27521 z m 2.44318,0 c -0.13713,0.0147 -0.24056,0.12908 -0.24056,0.2752 v 0.0587 c 0,0.16699 0.13499,0.31277 0.30099,0.33091 2.99606,0.32731 5.71632,1.90306 7.49095,4.33907 0.0983,0.13498 0.2391,0.1279 0.31871,-0.0189 l 0.059,-0.10886 c 0.0796,-0.1468 0.0647,-0.37543 -0.0372,-0.50769 -1.90152,-2.4672 -4.73302,-4.04668 -7.83131,-4.36841 -0.0208,-0.002 -0.041,-0.002 -0.0606,0 z m -2.38215,1.25101 c -0.0196,-0.002 -0.0399,-0.002 -0.0606,5.8e-4 -2.90682,0.33962 -5.52567,1.92101 -7.17972,4.33533 -0.0944,0.13776 -0.10264,0.37093 -0.023,0.51773 l 0.0756,0.13937 c 0.0796,0.1468 0.21218,0.14866 0.30139,0.007 1.51215,-2.39274 4.01735,-3.98368 6.82596,-4.33513 0.1657,-0.0207 0.3006,-0.16806 0.3006,-0.33506 v -0.0579 c 0,-0.14612 -0.10322,-0.25956 -0.24016,-0.27264 z m 2.38195,0 c -0.13694,0.0131 -0.24036,0.12653 -0.24036,0.27265 v 0.0579 c 0,0.167 0.1349,0.31431 0.3006,0.33505 2.80861,0.35145 5.31381,1.94239 6.82597,4.33513 0.0892,0.14118 0.22178,0.13932 0.30138,-0.007 l 0.0756,-0.13937 c 0.0796,-0.1468 0.0714,-0.37997 -0.023,-0.51773 -1.65406,-2.41432 -4.27291,-3.99571 -7.17972,-4.33533 -0.0207,-0.002 -0.0409,-0.003 -0.0604,-5.8e-4 z m -11.5009,5.24323 c -0.0496,0.001 -0.0981,0.04 -0.13268,0.11595 -0.62513,1.37476 -0.970044,2.86042 -1.014788,4.36998 -0.0049,0.16691 -0.0053,0.43781 -8.04e-4,0.60474 0.149812,5.48841 4.209292,10.09027 9.636082,10.92406 0.16505,0.0254 0.23492,-0.0768 0.15532,-0.22362 l -0.11122,-0.20512 c -0.0796,-0.14681 -0.27768,-0.28853 -0.44135,-0.32166 -4.87234,-0.98638 -8.42772,-5.20468 -8.57484,-10.17366 -0.005,-0.16691 -0.005,-0.43784 6.3e-4,-0.60474 0.0395,-1.24649 0.2966,-2.47649 0.75947,-3.63453 0.062,-0.15506 0.0516,-0.39829 -0.028,-0.5451 l -0.10749,-0.19803 c -0.0398,-0.0734 -0.0907,-0.10955 -0.14035,-0.10827 z m 20.61965,0 c -0.0496,-0.001 -0.10042,0.035 -0.14017,0.10827 l -0.10748,0.19803 c -0.0796,0.14681 -0.0899,0.39004 -0.028,0.5451 0.46287,1.15804 0.71992,2.38804 0.75947,3.63453 0.005,0.1669 0.005,0.43783 3.8e-4,0.60474 -0.14712,4.96898 -3.7025,9.18728 -8.57484,10.17366 -0.16367,0.0331 -0.36175,0.17485 -0.44135,0.32166 l -0.11122,0.20512 c -0.0796,0.1468 -0.01,0.24899 0.15532,0.22362 5.42679,-0.83379 9.48626,-5.43565 9.63608,-10.92406 0.005,-0.16693 0.004,-0.43783 -8e-4,-0.60474 -0.0447,-1.50956 -0.38966,-2.99522 -1.01479,-4.36998 -0.0345,-0.0759 -0.0829,-0.11471 -0.13249,-0.11595 z m -19.85211,1.40554 c -0.0451,0.003 -0.0871,0.0446 -0.11457,0.12343 -0.33172,0.95248 -0.51924,1.94906 -0.55651,2.95696 -0.006,0.16687 -0.007,0.43784 -10e-4,0.60474 0.14686,4.50675 3.26166,8.37752 7.63269,9.48506 0.16187,0.041 0.22978,-0.0491 0.1502,-0.19587 l -0.13524,-0.24962 c -0.0796,-0.14681 -0.27436,-0.30286 -0.43328,-0.35414 -3.79446,-1.22435 -6.4169,-4.70063 -6.55175,-8.68543 -0.006,-0.16689 -0.005,-0.43786 8e-4,-0.60474 0.0265,-0.73537 0.13854,-1.46507 0.33407,-2.17446 0.0444,-0.16098 0.0205,-0.40911 -0.0591,-0.55592 l -0.13268,-0.24488 c -0.0398,-0.0734 -0.0881,-0.10832 -0.13327,-0.10513 z m 19.08457,0 c -0.0451,-0.003 -0.0935,0.0318 -0.13328,0.10513 l -0.13268,0.24488 c -0.0796,0.14681 -0.10342,0.39494 -0.059,0.55592 0.19552,0.70939 0.30757,1.43909 0.33406,2.17446 0.006,0.16688 0.006,0.43785 8e-4,0.60474 -0.13484,3.9848 -2.75729,7.46108 -6.55174,8.68543 -0.15892,0.0513 -0.3537,0.20733 -0.43328,0.35414 l -0.13524,0.24962 c -0.0796,0.14681 -0.0117,0.23688 0.1502,0.19587 4.37103,-1.10754 7.48582,-4.97831 7.63268,-9.48506 0.005,-0.1669 0.005,-0.43787 -0.001,-0.60474 -0.0373,-1.0079 -0.22479,-2.00448 -0.55651,-2.95696 -0.0275,-0.0789 -0.0694,-0.12038 -0.11457,-0.12343 z" />
  </g>
</svg>
