<?xml version="1.0" encoding="UTF-8" standalone="no"?>
<!-- Created with Inkscape (http://www.inkscape.org/) -->

<svg
   width="263.82178mm"
   height="31.76531mm"
   viewBox="0 0 263.82178 31.76531"
   version="1.1"
   id="svg1"
   inkscape:version="1.3 (0e150ed, 2023-07-21)"
   sodipodi:docname="codevivo_logo_text_white.svg"
   xmlns:inkscape="http://www.inkscape.org/namespaces/inkscape"
   xmlns:sodipodi="http://sodipodi.sourceforge.net/DTD/sodipodi-0.dtd"
   xmlns="http://www.w3.org/2000/svg"
   xmlns:svg="http://www.w3.org/2000/svg">
  <sodipodi:namedview
     id="namedview1"
     pagecolor="#000000"
     bordercolor="#000000"
     borderopacity="0.21960784"
     inkscape:showpageshadow="2"
     inkscape:pageopacity="0.0"
     inkscape:pagecheckerboard="0"
     inkscape:deskcolor="#d1d1d1"
     inkscape:document-units="mm"
     inkscape:zoom="1.0826812"
     inkscape:cx="504.30357"
     inkscape:cy="135.31222"
     inkscape:window-width="2560"
     inkscape:window-height="1412"
     inkscape:window-x="0"
     inkscape:window-y="28"
     inkscape:window-maximized="0"
     inkscape:current-layer="layer1" />
  <defs
     id="defs1" />
  <g
     inkscape:label="Layer 1"
     inkscape:groupmode="layer"
     id="layer1"
     transform="translate(-16.589118,-89.117345)">
    <g
       id="g55"
       transform="translate(-6.1304877,43.976256)">
      <path
         id="path13"
         style="fill:#ffffff;fill-opacity:1;fill-rule:evenodd;stroke:#ffffff;stroke-width:0.3;stroke-dasharray:none;stroke-opacity:1"
         inkscape:label="Outer Circle Black"
         d="m 33.078971,54.201599 c -3.098291,0.321721 -5.929797,1.901199 -7.83131,4.36841 -0.10194,0.132264 -0.11681,0.360882 -0.03721,0.507686 l 0.05906,0.108862 c 0.07961,0.146792 0.220384,0.15387 0.31871,0.01888 1.774623,-2.436014 4.49489,-4.01176 7.490947,-4.339074 0.166003,-0.01814 0.300992,-0.163921 0.300992,-0.330913 v -0.05867 c 0,-0.166992 -0.135092,-0.292449 -0.301189,-0.275201 z m 2.443175,0 c -0.137129,0.01474 -0.240557,0.129083 -0.240557,0.275203 v 0.05866 c 0,0.166991 0.134988,0.312774 0.300992,0.330912 2.996057,0.327314 5.716324,1.90306 7.490947,4.339074 0.09832,0.134974 0.239104,0.127896 0.318709,-0.01888 l 0.05906,-0.108861 c 0.0796,-0.146798 0.06473,-0.375422 -0.03721,-0.507686 -1.901513,-2.467206 -4.73302,-4.046683 -7.831311,-4.368406 -0.02076,-0.0022 -0.04104,-0.0021 -0.06063,0 z m -2.38215,1.251014 c -0.01956,-0.0017 -0.0399,-0.0017 -0.06063,5.74e-4 -2.906813,0.339627 -5.525663,1.92101 -7.179719,4.335337 -0.09438,0.137758 -0.102635,0.370922 -0.02303,0.517726 l 0.07559,0.13937 c 0.0796,0.146798 0.212175,0.148658 0.301385,0.0075 1.512155,-2.392739 4.017352,-3.983685 6.825969,-4.335136 0.165699,-0.02072 0.300599,-0.168054 0.300599,-0.335051 v -0.05787 c 0,-0.146121 -0.103224,-0.259563 -0.240164,-0.272645 z m 2.381953,0 c -0.13694,0.01309 -0.24036,0.126524 -0.24036,0.272645 v 0.05787 c 0,0.166998 0.134899,0.314312 0.300598,0.335046 2.808617,0.351456 5.313814,1.942397 6.825969,4.335136 0.08921,0.141178 0.221783,0.139318 0.301386,-0.0075 l 0.07559,-0.139371 c 0.0796,-0.146804 0.07135,-0.379968 -0.02303,-0.517725 -1.654055,-2.414328 -4.272905,-3.995711 -7.179718,-4.335337 -0.02073,-0.0023 -0.04087,-0.0029 -0.06044,-5.74e-4 z m -11.500896,5.243231 c -0.04964,0.0011 -0.09812,0.03995 -0.132681,0.115945 -0.625136,1.374761 -0.970046,2.860422 -1.01479,4.369978 -0.0049,0.166918 -0.0053,0.437812 -8.04e-4,0.60474 0.149816,5.488415 4.20929,10.090272 9.636083,10.924066 0.165051,0.02537 0.234919,-0.07683 0.155319,-0.223624 l -0.111223,-0.205124 c -0.0796,-0.146803 -0.277682,-0.288527 -0.441351,-0.321659 -4.872334,-0.986373 -8.427719,-5.20468 -8.574834,-10.173659 -0.0049,-0.166911 -0.0047,-0.437834 6.31e-4,-0.60474 0.03955,-1.246492 0.296598,-2.476487 0.759469,-3.63453 0.06198,-0.155058 0.05164,-0.398285 -0.02795,-0.545094 l -0.107483,-0.198029 c -0.0398,-0.07341 -0.09071,-0.109556 -0.140357,-0.10827 z m 20.619643,0 c -0.04958,-0.0011 -0.100413,0.03496 -0.140161,0.10827 l -0.107484,0.198029 c -0.0796,0.146809 -0.08993,0.390036 -0.02795,0.545094 0.462872,1.158043 0.719921,2.388038 0.759469,3.63453 0.0053,0.166906 0.0053,0.437829 3.81e-4,0.60474 -0.147116,4.968979 -3.7025,9.187286 -8.574834,10.173659 -0.163669,0.03312 -0.361751,0.174856 -0.441351,0.321659 l -0.111223,0.205124 c -0.0796,0.146798 -0.0097,0.248995 0.155319,0.223624 5.426794,-0.833794 9.486266,-5.435651 9.636083,-10.924066 0.0045,-0.166928 0.0041,-0.437822 -8.03e-4,-0.60474 -0.04475,-1.509556 -0.389655,-2.995217 -1.014791,-4.369978 -0.03452,-0.07591 -0.08291,-0.114711 -0.132484,-0.115945 z m -19.852103,1.40554 c -0.04514,0.0029 -0.08711,0.0446 -0.11457,0.123424 -0.331721,0.952477 -0.519244,1.949061 -0.556511,2.956959 -0.0062,0.166872 -0.0068,0.43784 -0.0014,0.60474 0.146855,4.506755 3.26165,8.37752 7.632683,9.485061 0.161871,0.04098 0.229785,-0.04908 0.150201,-0.19587 l -0.13524,-0.249616 c -0.07958,-0.146809 -0.27436,-0.302866 -0.433279,-0.354143 -3.794459,-1.224347 -6.416903,-4.700627 -6.55175,-8.685432 -0.0056,-0.166888 -0.0052,-0.437857 8.04e-4,-0.60474 0.02649,-0.735362 0.138539,-1.46507 0.334064,-2.174459 0.04437,-0.160982 0.02053,-0.409105 -0.05906,-0.555914 l -0.13268,-0.244886 c -0.03979,-0.07341 -0.08814,-0.108316 -0.133271,-0.105124 z m 19.084562,0 c -0.04513,-0.0029 -0.09348,0.03174 -0.13327,0.105124 l -0.132681,0.244886 c -0.07959,0.146809 -0.103428,0.394932 -0.05906,0.555914 0.195525,0.709389 0.307574,1.439097 0.334064,2.174459 0.006,0.166883 0.0064,0.437852 8.04e-4,0.60474 -0.134847,3.984805 -2.757291,7.461085 -6.55175,8.685432 -0.158918,0.05126 -0.353694,0.207334 -0.433279,0.354143 l -0.135239,0.249616 c -0.07959,0.146809 -0.01167,0.236883 0.1502,0.19587 4.371033,-1.107541 7.485828,-4.978306 7.632683,-9.485061 0.0055,-0.1669 0.0048,-0.437868 -0.0014,-0.60474 -0.03726,-1.007898 -0.22479,-2.004482 -0.556511,-2.956959 -0.02746,-0.07885 -0.06943,-0.120376 -0.11457,-0.123424 z" />
      <path
         style="font-size:42.3333px;line-height:1;font-family:Montserrat;-inkscape-font-specification:'Montserrat, Normal';font-variant-ligatures:none;letter-spacing:5.29167px;fill:#ffffff;stroke:#ffffff;stroke-width:0.1"
         d="m 86.900822,76.814069 q -3.301998,0 -5.926662,-1.43933 -2.582332,-1.48167 -4.063997,-4.02167 -1.481666,-2.58233 -1.481666,-5.88433 0,-3.34433 1.481666,-5.88432 1.481665,-2.54 4.063997,-3.97933 2.624664,-1.43934 5.926662,-1.43934 2.836331,0 5.122329,1.10067 2.285999,1.10067 3.598331,3.302 l -2.243665,1.524 q -1.142999,-1.69334 -2.836331,-2.49767 -1.693332,-0.80433 -3.682997,-0.80433 -2.370665,0 -4.275664,1.10066 -1.904998,1.05834 -3.005664,3.00567 -1.100666,1.94733 -1.100666,4.57199 0,2.62467 1.100666,4.572 1.100666,1.94733 3.005664,3.048 1.904999,1.05833 4.275664,1.05833 1.989665,0 3.682997,-0.80433 1.693332,-0.80433 2.836331,-2.45533 l 2.243665,1.524 q -1.312332,2.15899 -3.598331,3.30199 -2.285998,1.10067 -5.122329,1.10067 z m 28.574948,0 q -3.21734,0 -5.79967,-1.43933 -2.53999,-1.48167 -4.02166,-4.02167 -1.48167,-2.58233 -1.48167,-5.88433 0,-3.34433 1.48167,-5.88432 1.48167,-2.54 4.02166,-3.97933 2.54,-1.43934 5.79967,-1.43934 3.30199,0 5.84199,1.43934 2.58233,1.43933 4.02167,3.97933 1.48166,2.53999 1.48166,5.88432 0,3.302 -1.48166,5.88433 -1.43934,2.54 -4.02167,4.02167 -2.58233,1.43933 -5.84199,1.43933 z m 0,-2.667 q 2.41299,0 4.27566,-1.05833 1.86266,-1.10067 2.921,-3.048 1.10066,-1.98966 1.10066,-4.572 0,-2.62466 -1.10066,-4.57199 -1.05834,-1.94733 -2.921,-3.00567 -1.86267,-1.10066 -4.23333,-1.10066 -2.37067,0 -4.23333,1.10066 -1.86267,1.05834 -2.96333,3.00567 -1.10067,1.94733 -1.10067,4.57199 0,2.58234 1.10067,4.572 1.10066,1.94733 2.96333,3.048 1.86266,1.05833 4.191,1.05833 z m 31.62294,2.667 q -3.175,0 -5.715,-1.43933 -2.49766,-1.43933 -3.937,-3.97933 -1.43933,-2.58233 -1.43933,-5.92667 0,-3.38666 1.43933,-5.92666 1.43934,-2.54 3.937,-3.93699 2.54,-1.43934 5.715,-1.43934 2.92099,0 5.20699,1.31234 2.32833,1.31233 3.683,3.85233 1.397,2.49766 1.397,6.13832 0,3.59834 -1.35467,6.13833 -1.35466,2.54 -3.683,3.89467 -2.28599,1.31233 -5.24932,1.31233 z m 0.21166,-2.667 q 2.37067,0 4.23333,-1.05833 1.905,-1.10067 2.96333,-3.048 1.10067,-1.98966 1.10067,-4.572 0,-2.62466 -1.10067,-4.57199 -1.05833,-1.94733 -2.96333,-3.00567 -1.86266,-1.10066 -4.23333,-1.10066 -2.32833,0 -4.19099,1.10066 -1.86267,1.05834 -2.96334,3.00567 -1.10066,1.94733 -1.10066,4.57199 0,2.58234 1.10066,4.572 1.10067,1.94733 2.96334,3.048 1.86266,1.05833 4.19099,1.05833 z m 8.382,2.45533 v -6.68866 l 0.29633,-4.48733 -0.42333,-4.48733 v -15.74799 h 3.00566 v 31.41131 z m 25.99263,0.21167 q -3.47133,0 -6.09599,-1.43933 -2.62467,-1.48167 -4.10633,-4.02167 -1.48167,-2.58233 -1.48167,-5.88433 0,-3.30199 1.397,-5.84199 1.43933,-2.54 3.89466,-3.97933 2.49767,-1.48167 5.588,-1.48167 3.13266,0 5.54566,1.43934 2.45533,1.39699 3.85233,3.97933 1.397,2.53999 1.397,5.88432 0,0.21167 -0.0423,0.46567 0,0.21167 0,0.46567 h -19.34632 v -2.24367 h 17.73765 l -1.18533,0.889 q 0,-2.413 -1.05833,-4.27566 -1.016,-1.905 -2.794,-2.96333 -1.778,-1.05834 -4.10633,-1.05834 -2.286,0 -4.10633,1.05834 -1.82033,1.05833 -2.83633,2.96333 -1.016,1.905 -1.016,4.36033 v 0.46566 q 0,2.54 1.10066,4.48733 1.143,1.905 3.13267,3.00567 2.032,1.05833 4.61433,1.05833 2.032,0 3.76766,-0.71966 1.778,-0.71967 3.048,-2.20134 l 1.69333,1.94734 q -1.48166,1.77799 -3.72533,2.70933 -2.20133,0.93133 -4.86833,0.93133 z"
         id="path42" />
      <path
         style="font-weight:500;font-size:42.3333px;line-height:1;font-family:Montserrat;-inkscape-font-specification:'Montserrat Medium';font-variant-ligatures:none;letter-spacing:1.32292px;fill:#ffffff;stroke:#ffffff;stroke-width:0.1"
         d="m 208.65124,76.602399 -9.82133,-22.43665 h 4.23333 l 8.72066,20.31999 h -2.032 l 8.89,-20.31999 h 3.97933 l -9.82133,22.43665 z m 19.10282,0 v -22.43665 h 4.064 v 22.43665 z m 2.032,-24.63797 c -0.79022,0 -1.45344,-0.254 -1.98967,-0.762 -0.50799,-0.508 -0.76199,-1.12889 -0.76199,-1.86267 0,-0.762 0.254,-1.397 0.76199,-1.905 0.53623,-0.508 1.19945,-0.762 1.98967,-0.762 0.79022,0 1.43933,0.254 1.94733,0.762 0.53622,0.47978 0.80433,1.08656 0.80433,1.82034 0,0.76199 -0.254,1.4111 -0.76199,1.94733 -0.508,0.508 -1.17122,0.762 -1.98967,0.762 z m 16.98623,24.63797 -9.82133,-22.43665 h 4.23333 l 8.72066,20.31999 h -2.032 l 8.89,-20.31999 h 3.97933 l -9.82133,22.43665 z m 28.07742,0.254 c -2.25777,0 -4.26155,-0.49389 -6.01133,-1.48166 -1.74977,-0.98778 -3.13266,-2.34245 -4.14866,-4.064 -1.016,-1.74977 -1.524,-3.72533 -1.524,-5.92666 0,-2.22955 0.508,-4.20511 1.524,-5.92666 1.016,-1.72156 2.39889,-3.06212 4.14866,-4.02167 1.74978,-0.98777 3.75356,-1.48166 6.01133,-1.48166 2.22955,0 4.21922,0.49389 5.969,1.48166 1.778,0.95955 3.16089,2.30011 4.14866,4.02167 1.016,1.69333 1.524,3.66888 1.524,5.92666 0,2.22955 -0.508,4.20511 -1.524,5.92666 -0.98777,1.72155 -2.37066,3.07622 -4.14866,4.064 -1.74978,0.98777 -3.73945,1.48166 -5.969,1.48166 z m 0,-3.55599 c 1.43933,0 2.72344,-0.32456 3.85233,-0.97367 1.15711,-0.64911 2.06023,-1.56633 2.70934,-2.75166 0.64911,-1.21356 0.97366,-2.61056 0.97366,-4.191 0,-1.60867 -0.32455,-2.99156 -0.97366,-4.14867 -0.64911,-1.18533 -1.55223,-2.10255 -2.70934,-2.75166 -1.12889,-0.64911 -2.413,-0.97367 -3.85233,-0.97367 -1.43933,0 -2.72344,0.32456 -3.85233,0.97367 -1.12889,0.64911 -2.032,1.56633 -2.70933,2.75166 -0.67733,1.15711 -1.016,2.54 -1.016,4.14867 0,1.58044 0.33867,2.97744 1.016,4.191 0.67733,1.18533 1.58044,2.10255 2.70933,2.75166 1.12889,0.64911 2.413,0.97367 3.85233,0.97367 z"
         id="path43"
         sodipodi:nodetypes="ccccccccccccccscscscscscccccccccsscsscsccsccssccsccsscscss" />
      <path
         style="font-weight:500;font-size:42.3333px;line-height:1;font-family:Montserrat;-inkscape-font-specification:'Montserrat Medium';font-variant-ligatures:none;letter-spacing:1.32292px;fill:#ffffff;stroke:#ffffff;stroke-width:0.1"
         d="m 208.65124,76.602399 -9.82133,-22.43665 h 4.23333 l 8.72066,20.31999 h -2.032 l 8.89,-20.31999 h 3.97933 l -9.82133,22.43665 z m 19.10282,0 v -22.43665 h 4.064 v 22.43665 z m 19.01823,0 -9.82133,-22.43665 h 4.23333 l 8.72066,20.31999 h -2.032 l 8.89,-20.31999 h 3.97933 l -9.82133,22.43665 z m 28.07742,0.254 c -2.25777,0 -4.26155,-0.49389 -6.01133,-1.48166 -1.74977,-0.98778 -3.13266,-2.34245 -4.14866,-4.064 -1.016,-1.74977 -1.524,-3.72533 -1.524,-5.92666 0,-2.22955 0.508,-4.20511 1.524,-5.92666 1.016,-1.72156 2.39889,-3.06212 4.14866,-4.02167 1.74978,-0.98777 3.75356,-1.48166 6.01133,-1.48166 2.22955,0 4.21922,0.49389 5.969,1.48166 1.778,0.95955 3.16089,2.30011 4.14866,4.02167 1.016,1.69333 1.524,3.66888 1.524,5.92666 0,2.22955 -0.508,4.20511 -1.524,5.92666 -0.98777,1.72155 -2.37066,3.07622 -4.14866,4.064 -1.74978,0.98777 -3.73945,1.48166 -5.969,1.48166 z m 0,-3.55599 c 1.43933,0 2.72344,-0.32456 3.85233,-0.97367 1.15711,-0.64911 2.06023,-1.56633 2.70934,-2.75166 0.64911,-1.21356 0.97366,-2.61056 0.97366,-4.191 0,-1.60867 -0.32455,-2.99156 -0.97366,-4.14867 -0.64911,-1.18533 -1.55223,-2.10255 -2.70934,-2.75166 -1.12889,-0.64911 -2.413,-0.97367 -3.85233,-0.97367 -1.43933,0 -2.72344,0.32456 -3.85233,0.97367 -1.12889,0.64911 -2.032,1.56633 -2.70933,2.75166 -0.67733,1.15711 -1.016,2.54 -1.016,4.14867 0,1.58044 0.33867,2.97744 1.016,4.191 0.67733,1.18533 1.58044,2.10255 2.70933,2.75166 1.12889,0.64911 2.413,0.97367 3.85233,0.97367 z"
         id="path44"
         sodipodi:nodetypes="cccccccccccccccccccccccsscsscsccsccssccsccsscscss" />
    </g>
    <g
       id="g4"
       transform="translate(-6.1304877,43.976256)">
      <path
         id="path1"
         style="fill:#ffffff;fill-opacity:1;fill-rule:evenodd;stroke:#ffffff;stroke-width:0.3;stroke-dasharray:none;stroke-opacity:1"
         inkscape:label="Outer Circle Black"
         d="m 33.078971,54.201599 c -3.098291,0.321721 -5.929797,1.901199 -7.83131,4.36841 -0.10194,0.132264 -0.11681,0.360882 -0.03721,0.507686 l 0.05906,0.108862 c 0.07961,0.146792 0.220384,0.15387 0.31871,0.01888 1.774623,-2.436014 4.49489,-4.01176 7.490947,-4.339074 0.166003,-0.01814 0.300992,-0.163921 0.300992,-0.330913 v -0.05867 c 0,-0.166992 -0.135092,-0.292449 -0.301189,-0.275201 z m 2.443175,0 c -0.137129,0.01474 -0.240557,0.129083 -0.240557,0.275203 v 0.05866 c 0,0.166991 0.134988,0.312774 0.300992,0.330912 2.996057,0.327314 5.716324,1.90306 7.490947,4.339074 0.09832,0.134974 0.239104,0.127896 0.318709,-0.01888 l 0.05906,-0.108861 c 0.0796,-0.146798 0.06473,-0.375422 -0.03721,-0.507686 -1.901513,-2.467206 -4.73302,-4.046683 -7.831311,-4.368406 -0.02076,-0.0022 -0.04104,-0.0021 -0.06063,0 z m -2.38215,1.251014 c -0.01956,-0.0017 -0.0399,-0.0017 -0.06063,5.74e-4 -2.906813,0.339627 -5.525663,1.92101 -7.179719,4.335337 -0.09438,0.137758 -0.102635,0.370922 -0.02303,0.517726 l 0.07559,0.13937 c 0.0796,0.146798 0.212175,0.148658 0.301385,0.0075 1.512155,-2.392739 4.017352,-3.983685 6.825969,-4.335136 0.165699,-0.02072 0.300599,-0.168054 0.300599,-0.335051 v -0.05787 c 0,-0.146121 -0.103224,-0.259563 -0.240164,-0.272645 z m 2.381953,0 c -0.13694,0.01309 -0.24036,0.126524 -0.24036,0.272645 v 0.05787 c 0,0.166998 0.134899,0.314312 0.300598,0.335046 2.808617,0.351456 5.313814,1.942397 6.825969,4.335136 0.08921,0.141178 0.221783,0.139318 0.301386,-0.0075 l 0.07559,-0.139371 c 0.0796,-0.146804 0.07135,-0.379968 -0.02303,-0.517725 -1.654055,-2.414328 -4.272905,-3.995711 -7.179718,-4.335337 -0.02073,-0.0023 -0.04087,-0.0029 -0.06044,-5.74e-4 z m -11.500896,5.243231 c -0.04964,0.0011 -0.09812,0.03995 -0.132681,0.115945 -0.625136,1.374761 -0.970046,2.860422 -1.01479,4.369978 -0.0049,0.166918 -0.0053,0.437812 -8.04e-4,0.60474 0.149816,5.488415 4.20929,10.090272 9.636083,10.924066 0.165051,0.02537 0.234919,-0.07683 0.155319,-0.223624 l -0.111223,-0.205124 c -0.0796,-0.146803 -0.277682,-0.288527 -0.441351,-0.321659 -4.872334,-0.986373 -8.427719,-5.20468 -8.574834,-10.173659 -0.0049,-0.166911 -0.0047,-0.437834 6.31e-4,-0.60474 0.03955,-1.246492 0.296598,-2.476487 0.759469,-3.63453 0.06198,-0.155058 0.05164,-0.398285 -0.02795,-0.545094 l -0.107483,-0.198029 c -0.0398,-0.07341 -0.09071,-0.109556 -0.140357,-0.10827 z m 20.619643,0 c -0.04958,-0.0011 -0.100413,0.03496 -0.140161,0.10827 l -0.107484,0.198029 c -0.0796,0.146809 -0.08993,0.390036 -0.02795,0.545094 0.462872,1.158043 0.719921,2.388038 0.759469,3.63453 0.0053,0.166906 0.0053,0.437829 3.81e-4,0.60474 -0.147116,4.968979 -3.7025,9.187286 -8.574834,10.173659 -0.163669,0.03312 -0.361751,0.174856 -0.441351,0.321659 l -0.111223,0.205124 c -0.0796,0.146798 -0.0097,0.248995 0.155319,0.223624 5.426794,-0.833794 9.486266,-5.435651 9.636083,-10.924066 0.0045,-0.166928 0.0041,-0.437822 -8.03e-4,-0.60474 -0.04475,-1.509556 -0.389655,-2.995217 -1.014791,-4.369978 -0.03452,-0.07591 -0.08291,-0.114711 -0.132484,-0.115945 z m -19.852103,1.40554 c -0.04514,0.0029 -0.08711,0.0446 -0.11457,0.123424 -0.331721,0.952477 -0.519244,1.949061 -0.556511,2.956959 -0.0062,0.166872 -0.0068,0.43784 -0.0014,0.60474 0.146855,4.506755 3.26165,8.37752 7.632683,9.485061 0.161871,0.04098 0.229785,-0.04908 0.150201,-0.19587 l -0.13524,-0.249616 c -0.07958,-0.146809 -0.27436,-0.302866 -0.433279,-0.354143 -3.794459,-1.224347 -6.416903,-4.700627 -6.55175,-8.685432 -0.0056,-0.166888 -0.0052,-0.437857 8.04e-4,-0.60474 0.02649,-0.735362 0.138539,-1.46507 0.334064,-2.174459 0.04437,-0.160982 0.02053,-0.409105 -0.05906,-0.555914 l -0.13268,-0.244886 c -0.03979,-0.07341 -0.08814,-0.108316 -0.133271,-0.105124 z m 19.084562,0 c -0.04513,-0.0029 -0.09348,0.03174 -0.13327,0.105124 l -0.132681,0.244886 c -0.07959,0.146809 -0.103428,0.394932 -0.05906,0.555914 0.195525,0.709389 0.307574,1.439097 0.334064,2.174459 0.006,0.166883 0.0064,0.437852 8.04e-4,0.60474 -0.134847,3.984805 -2.757291,7.461085 -6.55175,8.685432 -0.158918,0.05126 -0.353694,0.207334 -0.433279,0.354143 l -0.135239,0.249616 c -0.07959,0.146809 -0.01167,0.236883 0.1502,0.19587 4.371033,-1.107541 7.485828,-4.978306 7.632683,-9.485061 0.0055,-0.1669 0.0048,-0.437868 -0.0014,-0.60474 -0.03726,-1.007898 -0.22479,-2.004482 -0.556511,-2.956959 -0.02746,-0.07885 -0.06943,-0.120376 -0.11457,-0.123424 z" />
      <path
         style="font-size:42.3333px;line-height:1;font-family:Montserrat;-inkscape-font-specification:'Montserrat, Normal';font-variant-ligatures:none;letter-spacing:5.29167px;fill:#ffffff;stroke:#ffffff;stroke-width:0.1"
         d="m 86.900822,76.814069 q -3.301998,0 -5.926662,-1.43933 -2.582332,-1.48167 -4.063997,-4.02167 -1.481666,-2.58233 -1.481666,-5.88433 0,-3.34433 1.481666,-5.88432 1.481665,-2.54 4.063997,-3.97933 2.624664,-1.43934 5.926662,-1.43934 2.836331,0 5.122329,1.10067 2.285999,1.10067 3.598331,3.302 l -2.243665,1.524 q -1.142999,-1.69334 -2.836331,-2.49767 -1.693332,-0.80433 -3.682997,-0.80433 -2.370665,0 -4.275664,1.10066 -1.904998,1.05834 -3.005664,3.00567 -1.100666,1.94733 -1.100666,4.57199 0,2.62467 1.100666,4.572 1.100666,1.94733 3.005664,3.048 1.904999,1.05833 4.275664,1.05833 1.989665,0 3.682997,-0.80433 1.693332,-0.80433 2.836331,-2.45533 l 2.243665,1.524 q -1.312332,2.15899 -3.598331,3.30199 -2.285998,1.10067 -5.122329,1.10067 z m 28.574948,0 q -3.21734,0 -5.79967,-1.43933 -2.53999,-1.48167 -4.02166,-4.02167 -1.48167,-2.58233 -1.48167,-5.88433 0,-3.34433 1.48167,-5.88432 1.48167,-2.54 4.02166,-3.97933 2.54,-1.43934 5.79967,-1.43934 3.30199,0 5.84199,1.43934 2.58233,1.43933 4.02167,3.97933 1.48166,2.53999 1.48166,5.88432 0,3.302 -1.48166,5.88433 -1.43934,2.54 -4.02167,4.02167 -2.58233,1.43933 -5.84199,1.43933 z m 0,-2.667 q 2.41299,0 4.27566,-1.05833 1.86266,-1.10067 2.921,-3.048 1.10066,-1.98966 1.10066,-4.572 0,-2.62466 -1.10066,-4.57199 -1.05834,-1.94733 -2.921,-3.00567 -1.86267,-1.10066 -4.23333,-1.10066 -2.37067,0 -4.23333,1.10066 -1.86267,1.05834 -2.96333,3.00567 -1.10067,1.94733 -1.10067,4.57199 0,2.58234 1.10067,4.572 1.10066,1.94733 2.96333,3.048 1.86266,1.05833 4.191,1.05833 z m 31.62294,2.667 q -3.175,0 -5.715,-1.43933 -2.49766,-1.43933 -3.937,-3.97933 -1.43933,-2.58233 -1.43933,-5.92667 0,-3.38666 1.43933,-5.92666 1.43934,-2.54 3.937,-3.93699 2.54,-1.43934 5.715,-1.43934 2.92099,0 5.20699,1.31234 2.32833,1.31233 3.683,3.85233 1.397,2.49766 1.397,6.13832 0,3.59834 -1.35467,6.13833 -1.35466,2.54 -3.683,3.89467 -2.28599,1.31233 -5.24932,1.31233 z m 0.21166,-2.667 q 2.37067,0 4.23333,-1.05833 1.905,-1.10067 2.96333,-3.048 1.10067,-1.98966 1.10067,-4.572 0,-2.62466 -1.10067,-4.57199 -1.05833,-1.94733 -2.96333,-3.00567 -1.86266,-1.10066 -4.23333,-1.10066 -2.32833,0 -4.19099,1.10066 -1.86267,1.05834 -2.96334,3.00567 -1.10066,1.94733 -1.10066,4.57199 0,2.58234 1.10066,4.572 1.10067,1.94733 2.96334,3.048 1.86266,1.05833 4.19099,1.05833 z m 8.382,2.45533 v -6.68866 l 0.29633,-4.48733 -0.42333,-4.48733 v -15.74799 h 3.00566 v 31.41131 z m 25.99263,0.21167 q -3.47133,0 -6.09599,-1.43933 -2.62467,-1.48167 -4.10633,-4.02167 -1.48167,-2.58233 -1.48167,-5.88433 0,-3.30199 1.397,-5.84199 1.43933,-2.54 3.89466,-3.97933 2.49767,-1.48167 5.588,-1.48167 3.13266,0 5.54566,1.43934 2.45533,1.39699 3.85233,3.97933 1.397,2.53999 1.397,5.88432 0,0.21167 -0.0423,0.46567 0,0.21167 0,0.46567 h -19.34632 v -2.24367 h 17.73765 l -1.18533,0.889 q 0,-2.413 -1.05833,-4.27566 -1.016,-1.905 -2.794,-2.96333 -1.778,-1.05834 -4.10633,-1.05834 -2.286,0 -4.10633,1.05834 -1.82033,1.05833 -2.83633,2.96333 -1.016,1.905 -1.016,4.36033 v 0.46566 q 0,2.54 1.10066,4.48733 1.143,1.905 3.13267,3.00567 2.032,1.05833 4.61433,1.05833 2.032,0 3.76766,-0.71966 1.778,-0.71967 3.048,-2.20134 l 1.69333,1.94734 q -1.48166,1.77799 -3.72533,2.70933 -2.20133,0.93133 -4.86833,0.93133 z"
         id="path2" />
      <path
         style="font-weight:500;font-size:42.3333px;line-height:1;font-family:Montserrat;-inkscape-font-specification:'Montserrat Medium';font-variant-ligatures:none;letter-spacing:1.32292px;fill:#ffffff;stroke:#ffffff;stroke-width:0.1"
         d="m 208.65124,76.602399 -9.82133,-22.43665 h 4.23333 l 8.72066,20.31999 h -2.032 l 8.89,-20.31999 h 3.97933 l -9.82133,22.43665 z m 19.10282,0 v -22.43665 h 4.064 v 22.43665 z m 2.032,-24.63797 c -0.79022,0 -1.45344,-0.254 -1.98967,-0.762 -0.50799,-0.508 -0.76199,-1.12889 -0.76199,-1.86267 0,-0.762 0.254,-1.397 0.76199,-1.905 0.53623,-0.508 1.19945,-0.762 1.98967,-0.762 0.79022,0 1.43933,0.254 1.94733,0.762 0.53622,0.47978 0.80433,1.08656 0.80433,1.82034 0,0.76199 -0.254,1.4111 -0.76199,1.94733 -0.508,0.508 -1.17122,0.762 -1.98967,0.762 z m 16.98623,24.63797 -9.82133,-22.43665 h 4.23333 l 8.72066,20.31999 h -2.032 l 8.89,-20.31999 h 3.97933 l -9.82133,22.43665 z m 28.07742,0.254 c -2.25777,0 -4.26155,-0.49389 -6.01133,-1.48166 -1.74977,-0.98778 -3.13266,-2.34245 -4.14866,-4.064 -1.016,-1.74977 -1.524,-3.72533 -1.524,-5.92666 0,-2.22955 0.508,-4.20511 1.524,-5.92666 1.016,-1.72156 2.39889,-3.06212 4.14866,-4.02167 1.74978,-0.98777 3.75356,-1.48166 6.01133,-1.48166 2.22955,0 4.21922,0.49389 5.969,1.48166 1.778,0.95955 3.16089,2.30011 4.14866,4.02167 1.016,1.69333 1.524,3.66888 1.524,5.92666 0,2.22955 -0.508,4.20511 -1.524,5.92666 -0.98777,1.72155 -2.37066,3.07622 -4.14866,4.064 -1.74978,0.98777 -3.73945,1.48166 -5.969,1.48166 z m 0,-3.55599 c 1.43933,0 2.72344,-0.32456 3.85233,-0.97367 1.15711,-0.64911 2.06023,-1.56633 2.70934,-2.75166 0.64911,-1.21356 0.97366,-2.61056 0.97366,-4.191 0,-1.60867 -0.32455,-2.99156 -0.97366,-4.14867 -0.64911,-1.18533 -1.55223,-2.10255 -2.70934,-2.75166 -1.12889,-0.64911 -2.413,-0.97367 -3.85233,-0.97367 -1.43933,0 -2.72344,0.32456 -3.85233,0.97367 -1.12889,0.64911 -2.032,1.56633 -2.70933,2.75166 -0.67733,1.15711 -1.016,2.54 -1.016,4.14867 0,1.58044 0.33867,2.97744 1.016,4.191 0.67733,1.18533 1.58044,2.10255 2.70933,2.75166 1.12889,0.64911 2.413,0.97367 3.85233,0.97367 z"
         id="path3"
         sodipodi:nodetypes="ccccccccccccccscscscscscccccccccsscsscsccsccssccsccsscscss" />
      <path
         style="font-weight:500;font-size:42.3333px;line-height:1;font-family:Montserrat;-inkscape-font-specification:'Montserrat Medium';font-variant-ligatures:none;letter-spacing:1.32292px;fill:#ffffff;stroke:#ffffff;stroke-width:0.1"
         d="m 208.65124,76.602399 -9.82133,-22.43665 h 4.23333 l 8.72066,20.31999 h -2.032 l 8.89,-20.31999 h 3.97933 l -9.82133,22.43665 z m 19.10282,0 v -22.43665 h 4.064 v 22.43665 z m 19.01823,0 -9.82133,-22.43665 h 4.23333 l 8.72066,20.31999 h -2.032 l 8.89,-20.31999 h 3.97933 l -9.82133,22.43665 z m 28.07742,0.254 c -2.25777,0 -4.26155,-0.49389 -6.01133,-1.48166 -1.74977,-0.98778 -3.13266,-2.34245 -4.14866,-4.064 -1.016,-1.74977 -1.524,-3.72533 -1.524,-5.92666 0,-2.22955 0.508,-4.20511 1.524,-5.92666 1.016,-1.72156 2.39889,-3.06212 4.14866,-4.02167 1.74978,-0.98777 3.75356,-1.48166 6.01133,-1.48166 2.22955,0 4.21922,0.49389 5.969,1.48166 1.778,0.95955 3.16089,2.30011 4.14866,4.02167 1.016,1.69333 1.524,3.66888 1.524,5.92666 0,2.22955 -0.508,4.20511 -1.524,5.92666 -0.98777,1.72155 -2.37066,3.07622 -4.14866,4.064 -1.74978,0.98777 -3.73945,1.48166 -5.969,1.48166 z m 0,-3.55599 c 1.43933,0 2.72344,-0.32456 3.85233,-0.97367 1.15711,-0.64911 2.06023,-1.56633 2.70934,-2.75166 0.64911,-1.21356 0.97366,-2.61056 0.97366,-4.191 0,-1.60867 -0.32455,-2.99156 -0.97366,-4.14867 -0.64911,-1.18533 -1.55223,-2.10255 -2.70934,-2.75166 -1.12889,-0.64911 -2.413,-0.97367 -3.85233,-0.97367 -1.43933,0 -2.72344,0.32456 -3.85233,0.97367 -1.12889,0.64911 -2.032,1.56633 -2.70933,2.75166 -0.67733,1.15711 -1.016,2.54 -1.016,4.14867 0,1.58044 0.33867,2.97744 1.016,4.191 0.67733,1.18533 1.58044,2.10255 2.70933,2.75166 1.12889,0.64911 2.413,0.97367 3.85233,0.97367 z"
         id="path4"
         sodipodi:nodetypes="cccccccccccccccccccccccsscsscsccsccssccsccsscscss" />
    </g>
    <g
       id="g8"
       transform="translate(-6.1304877,43.976256)">
      <path
         id="path5"
         style="fill:#ffffff;fill-opacity:1;fill-rule:evenodd;stroke:#ffffff;stroke-width:0.3;stroke-dasharray:none;stroke-opacity:1"
         inkscape:label="Outer Circle Black"
         d="m 33.078971,54.201599 c -3.098291,0.321721 -5.929797,1.901199 -7.83131,4.36841 -0.10194,0.132264 -0.11681,0.360882 -0.03721,0.507686 l 0.05906,0.108862 c 0.07961,0.146792 0.220384,0.15387 0.31871,0.01888 1.774623,-2.436014 4.49489,-4.01176 7.490947,-4.339074 0.166003,-0.01814 0.300992,-0.163921 0.300992,-0.330913 v -0.05867 c 0,-0.166992 -0.135092,-0.292449 -0.301189,-0.275201 z m 2.443175,0 c -0.137129,0.01474 -0.240557,0.129083 -0.240557,0.275203 v 0.05866 c 0,0.166991 0.134988,0.312774 0.300992,0.330912 2.996057,0.327314 5.716324,1.90306 7.490947,4.339074 0.09832,0.134974 0.239104,0.127896 0.318709,-0.01888 l 0.05906,-0.108861 c 0.0796,-0.146798 0.06473,-0.375422 -0.03721,-0.507686 -1.901513,-2.467206 -4.73302,-4.046683 -7.831311,-4.368406 -0.02076,-0.0022 -0.04104,-0.0021 -0.06063,0 z m -2.38215,1.251014 c -0.01956,-0.0017 -0.0399,-0.0017 -0.06063,5.74e-4 -2.906813,0.339627 -5.525663,1.92101 -7.179719,4.335337 -0.09438,0.137758 -0.102635,0.370922 -0.02303,0.517726 l 0.07559,0.13937 c 0.0796,0.146798 0.212175,0.148658 0.301385,0.0075 1.512155,-2.392739 4.017352,-3.983685 6.825969,-4.335136 0.165699,-0.02072 0.300599,-0.168054 0.300599,-0.335051 v -0.05787 c 0,-0.146121 -0.103224,-0.259563 -0.240164,-0.272645 z m 2.381953,0 c -0.13694,0.01309 -0.24036,0.126524 -0.24036,0.272645 v 0.05787 c 0,0.166998 0.134899,0.314312 0.300598,0.335046 2.808617,0.351456 5.313814,1.942397 6.825969,4.335136 0.08921,0.141178 0.221783,0.139318 0.301386,-0.0075 l 0.07559,-0.139371 c 0.0796,-0.146804 0.07135,-0.379968 -0.02303,-0.517725 -1.654055,-2.414328 -4.272905,-3.995711 -7.179718,-4.335337 -0.02073,-0.0023 -0.04087,-0.0029 -0.06044,-5.74e-4 z m -11.500896,5.243231 c -0.04964,0.0011 -0.09812,0.03995 -0.132681,0.115945 -0.625136,1.374761 -0.970046,2.860422 -1.01479,4.369978 -0.0049,0.166918 -0.0053,0.437812 -8.04e-4,0.60474 0.149816,5.488415 4.20929,10.090272 9.636083,10.924066 0.165051,0.02537 0.234919,-0.07683 0.155319,-0.223624 l -0.111223,-0.205124 c -0.0796,-0.146803 -0.277682,-0.288527 -0.441351,-0.321659 -4.872334,-0.986373 -8.427719,-5.20468 -8.574834,-10.173659 -0.0049,-0.166911 -0.0047,-0.437834 6.31e-4,-0.60474 0.03955,-1.246492 0.296598,-2.476487 0.759469,-3.63453 0.06198,-0.155058 0.05164,-0.398285 -0.02795,-0.545094 l -0.107483,-0.198029 c -0.0398,-0.07341 -0.09071,-0.109556 -0.140357,-0.10827 z m 20.619643,0 c -0.04958,-0.0011 -0.100413,0.03496 -0.140161,0.10827 l -0.107484,0.198029 c -0.0796,0.146809 -0.08993,0.390036 -0.02795,0.545094 0.462872,1.158043 0.719921,2.388038 0.759469,3.63453 0.0053,0.166906 0.0053,0.437829 3.81e-4,0.60474 -0.147116,4.968979 -3.7025,9.187286 -8.574834,10.173659 -0.163669,0.03312 -0.361751,0.174856 -0.441351,0.321659 l -0.111223,0.205124 c -0.0796,0.146798 -0.0097,0.248995 0.155319,0.223624 5.426794,-0.833794 9.486266,-5.435651 9.636083,-10.924066 0.0045,-0.166928 0.0041,-0.437822 -8.03e-4,-0.60474 -0.04475,-1.509556 -0.389655,-2.995217 -1.014791,-4.369978 -0.03452,-0.07591 -0.08291,-0.114711 -0.132484,-0.115945 z m -19.852103,1.40554 c -0.04514,0.0029 -0.08711,0.0446 -0.11457,0.123424 -0.331721,0.952477 -0.519244,1.949061 -0.556511,2.956959 -0.0062,0.166872 -0.0068,0.43784 -0.0014,0.60474 0.146855,4.506755 3.26165,8.37752 7.632683,9.485061 0.161871,0.04098 0.229785,-0.04908 0.150201,-0.19587 l -0.13524,-0.249616 c -0.07958,-0.146809 -0.27436,-0.302866 -0.433279,-0.354143 -3.794459,-1.224347 -6.416903,-4.700627 -6.55175,-8.685432 -0.0056,-0.166888 -0.0052,-0.437857 8.04e-4,-0.60474 0.02649,-0.735362 0.138539,-1.46507 0.334064,-2.174459 0.04437,-0.160982 0.02053,-0.409105 -0.05906,-0.555914 l -0.13268,-0.244886 c -0.03979,-0.07341 -0.08814,-0.108316 -0.133271,-0.105124 z m 19.084562,0 c -0.04513,-0.0029 -0.09348,0.03174 -0.13327,0.105124 l -0.132681,0.244886 c -0.07959,0.146809 -0.103428,0.394932 -0.05906,0.555914 0.195525,0.709389 0.307574,1.439097 0.334064,2.174459 0.006,0.166883 0.0064,0.437852 8.04e-4,0.60474 -0.134847,3.984805 -2.757291,7.461085 -6.55175,8.685432 -0.158918,0.05126 -0.353694,0.207334 -0.433279,0.354143 l -0.135239,0.249616 c -0.07959,0.146809 -0.01167,0.236883 0.1502,0.19587 4.371033,-1.107541 7.485828,-4.978306 7.632683,-9.485061 0.0055,-0.1669 0.0048,-0.437868 -0.0014,-0.60474 -0.03726,-1.007898 -0.22479,-2.004482 -0.556511,-2.956959 -0.02746,-0.07885 -0.06943,-0.120376 -0.11457,-0.123424 z" />
      <path
         style="font-size:42.3333px;line-height:1;font-family:Montserrat;-inkscape-font-specification:'Montserrat, Normal';font-variant-ligatures:none;letter-spacing:5.29167px;fill:#ffffff;stroke:#ffffff;stroke-width:0.1"
         d="m 86.900822,76.814069 q -3.301998,0 -5.926662,-1.43933 -2.582332,-1.48167 -4.063997,-4.02167 -1.481666,-2.58233 -1.481666,-5.88433 0,-3.34433 1.481666,-5.88432 1.481665,-2.54 4.063997,-3.97933 2.624664,-1.43934 5.926662,-1.43934 2.836331,0 5.122329,1.10067 2.285999,1.10067 3.598331,3.302 l -2.243665,1.524 q -1.142999,-1.69334 -2.836331,-2.49767 -1.693332,-0.80433 -3.682997,-0.80433 -2.370665,0 -4.275664,1.10066 -1.904998,1.05834 -3.005664,3.00567 -1.100666,1.94733 -1.100666,4.57199 0,2.62467 1.100666,4.572 1.100666,1.94733 3.005664,3.048 1.904999,1.05833 4.275664,1.05833 1.989665,0 3.682997,-0.80433 1.693332,-0.80433 2.836331,-2.45533 l 2.243665,1.524 q -1.312332,2.15899 -3.598331,3.30199 -2.285998,1.10067 -5.122329,1.10067 z m 28.574948,0 q -3.21734,0 -5.79967,-1.43933 -2.53999,-1.48167 -4.02166,-4.02167 -1.48167,-2.58233 -1.48167,-5.88433 0,-3.34433 1.48167,-5.88432 1.48167,-2.54 4.02166,-3.97933 2.54,-1.43934 5.79967,-1.43934 3.30199,0 5.84199,1.43934 2.58233,1.43933 4.02167,3.97933 1.48166,2.53999 1.48166,5.88432 0,3.302 -1.48166,5.88433 -1.43934,2.54 -4.02167,4.02167 -2.58233,1.43933 -5.84199,1.43933 z m 0,-2.667 q 2.41299,0 4.27566,-1.05833 1.86266,-1.10067 2.921,-3.048 1.10066,-1.98966 1.10066,-4.572 0,-2.62466 -1.10066,-4.57199 -1.05834,-1.94733 -2.921,-3.00567 -1.86267,-1.10066 -4.23333,-1.10066 -2.37067,0 -4.23333,1.10066 -1.86267,1.05834 -2.96333,3.00567 -1.10067,1.94733 -1.10067,4.57199 0,2.58234 1.10067,4.572 1.10066,1.94733 2.96333,3.048 1.86266,1.05833 4.191,1.05833 z m 31.62294,2.667 q -3.175,0 -5.715,-1.43933 -2.49766,-1.43933 -3.937,-3.97933 -1.43933,-2.58233 -1.43933,-5.92667 0,-3.38666 1.43933,-5.92666 1.43934,-2.54 3.937,-3.93699 2.54,-1.43934 5.715,-1.43934 2.92099,0 5.20699,1.31234 2.32833,1.31233 3.683,3.85233 1.397,2.49766 1.397,6.13832 0,3.59834 -1.35467,6.13833 -1.35466,2.54 -3.683,3.89467 -2.28599,1.31233 -5.24932,1.31233 z m 0.21166,-2.667 q 2.37067,0 4.23333,-1.05833 1.905,-1.10067 2.96333,-3.048 1.10067,-1.98966 1.10067,-4.572 0,-2.62466 -1.10067,-4.57199 -1.05833,-1.94733 -2.96333,-3.00567 -1.86266,-1.10066 -4.23333,-1.10066 -2.32833,0 -4.19099,1.10066 -1.86267,1.05834 -2.96334,3.00567 -1.10066,1.94733 -1.10066,4.57199 0,2.58234 1.10066,4.572 1.10067,1.94733 2.96334,3.048 1.86266,1.05833 4.19099,1.05833 z m 8.382,2.45533 v -6.68866 l 0.29633,-4.48733 -0.42333,-4.48733 v -15.74799 h 3.00566 v 31.41131 z m 25.99263,0.21167 q -3.47133,0 -6.09599,-1.43933 -2.62467,-1.48167 -4.10633,-4.02167 -1.48167,-2.58233 -1.48167,-5.88433 0,-3.30199 1.397,-5.84199 1.43933,-2.54 3.89466,-3.97933 2.49767,-1.48167 5.588,-1.48167 3.13266,0 5.54566,1.43934 2.45533,1.39699 3.85233,3.97933 1.397,2.53999 1.397,5.88432 0,0.21167 -0.0423,0.46567 0,0.21167 0,0.46567 h -19.34632 v -2.24367 h 17.73765 l -1.18533,0.889 q 0,-2.413 -1.05833,-4.27566 -1.016,-1.905 -2.794,-2.96333 -1.778,-1.05834 -4.10633,-1.05834 -2.286,0 -4.10633,1.05834 -1.82033,1.05833 -2.83633,2.96333 -1.016,1.905 -1.016,4.36033 v 0.46566 q 0,2.54 1.10066,4.48733 1.143,1.905 3.13267,3.00567 2.032,1.05833 4.61433,1.05833 2.032,0 3.76766,-0.71966 1.778,-0.71967 3.048,-2.20134 l 1.69333,1.94734 q -1.48166,1.77799 -3.72533,2.70933 -2.20133,0.93133 -4.86833,0.93133 z"
         id="path6" />
      <path
         style="font-weight:500;font-size:42.3333px;line-height:1;font-family:Montserrat;-inkscape-font-specification:'Montserrat Medium';font-variant-ligatures:none;letter-spacing:1.32292px;fill:#ffffff;stroke:#ffffff;stroke-width:0.1"
         d="m 208.65124,76.602399 -9.82133,-22.43665 h 4.23333 l 8.72066,20.31999 h -2.032 l 8.89,-20.31999 h 3.97933 l -9.82133,22.43665 z m 19.10282,0 v -22.43665 h 4.064 v 22.43665 z m 2.032,-24.63797 c -0.79022,0 -1.45344,-0.254 -1.98967,-0.762 -0.50799,-0.508 -0.76199,-1.12889 -0.76199,-1.86267 0,-0.762 0.254,-1.397 0.76199,-1.905 0.53623,-0.508 1.19945,-0.762 1.98967,-0.762 0.79022,0 1.43933,0.254 1.94733,0.762 0.53622,0.47978 0.80433,1.08656 0.80433,1.82034 0,0.76199 -0.254,1.4111 -0.76199,1.94733 -0.508,0.508 -1.17122,0.762 -1.98967,0.762 z m 16.98623,24.63797 -9.82133,-22.43665 h 4.23333 l 8.72066,20.31999 h -2.032 l 8.89,-20.31999 h 3.97933 l -9.82133,22.43665 z m 28.07742,0.254 c -2.25777,0 -4.26155,-0.49389 -6.01133,-1.48166 -1.74977,-0.98778 -3.13266,-2.34245 -4.14866,-4.064 -1.016,-1.74977 -1.524,-3.72533 -1.524,-5.92666 0,-2.22955 0.508,-4.20511 1.524,-5.92666 1.016,-1.72156 2.39889,-3.06212 4.14866,-4.02167 1.74978,-0.98777 3.75356,-1.48166 6.01133,-1.48166 2.22955,0 4.21922,0.49389 5.969,1.48166 1.778,0.95955 3.16089,2.30011 4.14866,4.02167 1.016,1.69333 1.524,3.66888 1.524,5.92666 0,2.22955 -0.508,4.20511 -1.524,5.92666 -0.98777,1.72155 -2.37066,3.07622 -4.14866,4.064 -1.74978,0.98777 -3.73945,1.48166 -5.969,1.48166 z m 0,-3.55599 c 1.43933,0 2.72344,-0.32456 3.85233,-0.97367 1.15711,-0.64911 2.06023,-1.56633 2.70934,-2.75166 0.64911,-1.21356 0.97366,-2.61056 0.97366,-4.191 0,-1.60867 -0.32455,-2.99156 -0.97366,-4.14867 -0.64911,-1.18533 -1.55223,-2.10255 -2.70934,-2.75166 -1.12889,-0.64911 -2.413,-0.97367 -3.85233,-0.97367 -1.43933,0 -2.72344,0.32456 -3.85233,0.97367 -1.12889,0.64911 -2.032,1.56633 -2.70933,2.75166 -0.67733,1.15711 -1.016,2.54 -1.016,4.14867 0,1.58044 0.33867,2.97744 1.016,4.191 0.67733,1.18533 1.58044,2.10255 2.70933,2.75166 1.12889,0.64911 2.413,0.97367 3.85233,0.97367 z"
         id="path7"
         sodipodi:nodetypes="ccccccccccccccscscscscscccccccccsscsscsccsccssccsccsscscss" />
      <path
         style="font-weight:500;font-size:42.3333px;line-height:1;font-family:Montserrat;-inkscape-font-specification:'Montserrat Medium';font-variant-ligatures:none;letter-spacing:1.32292px;fill:#ffffff;stroke:#ffffff;stroke-width:0.1"
         d="m 208.65124,76.602399 -9.82133,-22.43665 h 4.23333 l 8.72066,20.31999 h -2.032 l 8.89,-20.31999 h 3.97933 l -9.82133,22.43665 z m 19.10282,0 v -22.43665 h 4.064 v 22.43665 z m 19.01823,0 -9.82133,-22.43665 h 4.23333 l 8.72066,20.31999 h -2.032 l 8.89,-20.31999 h 3.97933 l -9.82133,22.43665 z m 28.07742,0.254 c -2.25777,0 -4.26155,-0.49389 -6.01133,-1.48166 -1.74977,-0.98778 -3.13266,-2.34245 -4.14866,-4.064 -1.016,-1.74977 -1.524,-3.72533 -1.524,-5.92666 0,-2.22955 0.508,-4.20511 1.524,-5.92666 1.016,-1.72156 2.39889,-3.06212 4.14866,-4.02167 1.74978,-0.98777 3.75356,-1.48166 6.01133,-1.48166 2.22955,0 4.21922,0.49389 5.969,1.48166 1.778,0.95955 3.16089,2.30011 4.14866,4.02167 1.016,1.69333 1.524,3.66888 1.524,5.92666 0,2.22955 -0.508,4.20511 -1.524,5.92666 -0.98777,1.72155 -2.37066,3.07622 -4.14866,4.064 -1.74978,0.98777 -3.73945,1.48166 -5.969,1.48166 z m 0,-3.55599 c 1.43933,0 2.72344,-0.32456 3.85233,-0.97367 1.15711,-0.64911 2.06023,-1.56633 2.70934,-2.75166 0.64911,-1.21356 0.97366,-2.61056 0.97366,-4.191 0,-1.60867 -0.32455,-2.99156 -0.97366,-4.14867 -0.64911,-1.18533 -1.55223,-2.10255 -2.70934,-2.75166 -1.12889,-0.64911 -2.413,-0.97367 -3.85233,-0.97367 -1.43933,0 -2.72344,0.32456 -3.85233,0.97367 -1.12889,0.64911 -2.032,1.56633 -2.70933,2.75166 -0.67733,1.15711 -1.016,2.54 -1.016,4.14867 0,1.58044 0.33867,2.97744 1.016,4.191 0.67733,1.18533 1.58044,2.10255 2.70933,2.75166 1.12889,0.64911 2.413,0.97367 3.85233,0.97367 z"
         id="path8"
         sodipodi:nodetypes="cccccccccccccccccccccccsscsscsccsccssccsccsscscss" />
    </g>
  </g>
</svg>
