<?xml version="1.0" encoding="UTF-8" standalone="no"?>
<!-- Created with Inkscape (http://www.inkscape.org/) -->

<svg
   width="23.433861mm"
   height="23.021355mm"
   viewBox="0 0 23.433861 23.021355"
   version="1.1"
   id="svg1"
   inkscape:version="1.3 (0e150ed, 2023-07-21)"
   sodipodi:docname="codevivo_icon_gold.svg"
   xmlns:inkscape="http://www.inkscape.org/namespaces/inkscape"
   xmlns:sodipodi="http://sodipodi.sourceforge.net/DTD/sodipodi-0.dtd"
   xmlns="http://www.w3.org/2000/svg"
   xmlns:svg="http://www.w3.org/2000/svg">
  <sodipodi:namedview
     id="namedview1"
     pagecolor="#ffffff"
     bordercolor="#000000"
     borderopacity="0.25"
     inkscape:showpageshadow="2"
     inkscape:pageopacity="0.0"
     inkscape:pagecheckerboard="0"
     inkscape:deskcolor="#d1d1d1"
     inkscape:document-units="mm"
     inkscape:zoom="15.404867"
     inkscape:cx="59.68893"
     inkscape:cy="23.077123"
     inkscape:window-width="2560"
     inkscape:window-height="1412"
     inkscape:window-x="0"
     inkscape:window-y="28"
     inkscape:window-maximized="0"
     inkscape:current-layer="layer1" />
  <defs
     id="defs1" />
  <g
     inkscape:label="Layer 1"
     inkscape:groupmode="layer"
     id="layer1"
     transform="translate(-46.0375,-131.76251)">
    <g
       id="g53"
       transform="matrix(0.38444883,0,0,0.38444739,40.405164,97.58761)"
       inkscape:label="Logo Blue and Gold"
       style="stroke:#000000;stroke-width:1.29519;stroke-opacity:1">
      <path
         id="path52"
         style="fill:#e09f3e;fill-opacity:1;fill-rule:evenodd;stroke:#e09f3e;stroke-width:0.780339;stroke-dasharray:none;stroke-opacity:1"
         inkscape:label="Circle Gold"
         d="m 48.414056,89.287483 c 8.133309,0.844557 15.566265,4.990837 20.557918,11.467517 0.267601,0.34721 0.306639,0.94737 0.09767,1.33274 l -0.15503,0.28577 c -0.20897,0.38536 -0.578527,0.40392 -0.836641,0.0496 C 63.419417,96.028315 56.278475,91.891823 48.41354,91.032586 47.977765,90.984977 47.623407,90.602282 47.623407,90.163906 V 90.00991 c 0,-0.438376 0.354631,-0.767713 0.79065,-0.722437 z m -0.001,3.286105 c 7.630661,0.891562 14.505376,5.042843 18.847429,11.380702 0.247757,0.36164 0.269426,0.97372 0.06046,1.35909 l -0.198437,0.36587 c -0.208966,0.38536 -0.556982,0.3902 -0.791167,0.0196 C 62.36179,99.417649 55.785428,95.241266 48.412539,94.318661 c -0.434975,-0.05443 -0.7891,-0.441158 -0.7891,-0.879533 v -0.151889 c 0,-0.438374 0.354219,-0.764522 0.789617,-0.713651 z m 23.778877,13.761952 c 0.130317,0.003 0.257572,0.10485 0.348299,0.30437 1.641042,3.6089 2.546463,7.50891 2.66392,11.47165 0.01299,0.43817 0.01403,1.1493 0.0021,1.5875 -0.393282,14.40766 -11.049762,26.48801 -25.295614,28.67681 -0.433273,0.0666 -0.616684,-0.20168 -0.407727,-0.58705 l 0.291972,-0.53847 c 0.208957,-0.38537 0.72894,-0.75741 1.158586,-0.84439 12.790343,-2.58933 22.123545,-13.6628 22.509737,-26.7069 0.01297,-0.43816 0.01235,-1.14935 -0.0015,-1.5875 -0.103819,-3.27217 -0.778595,-6.50104 -1.993677,-9.54102 -0.162698,-0.40704 -0.135574,-1.04554 0.07338,-1.43092 l 0.282154,-0.51986 c 0.104477,-0.19269 0.238135,-0.28759 0.368453,-0.28422 z m -2.014865,3.6897 c 0.118486,0.008 0.22867,0.11702 0.300757,0.32401 0.870799,2.50035 1.363064,5.11647 1.460893,7.76231 0.0162,0.43806 0.01789,1.14938 0.0036,1.5875 -0.38551,11.83071 -8.562126,21.99186 -20.036503,24.89926 -0.424929,0.10767 -0.603207,-0.12879 -0.394291,-0.51418 l 0.355017,-0.65526 c 0.208916,-0.38539 0.720221,-0.79505 1.137399,-0.92966 9.960817,-3.21404 16.844965,-12.33963 17.19895,-22.80016 0.01483,-0.4381 0.01371,-1.14942 -0.0021,-1.5875 -0.06954,-1.9304 -0.363677,-3.84596 -0.876949,-5.70817 -0.116479,-0.4226 -0.05389,-1.07395 0.155029,-1.45935 l 0.348299,-0.64285 c 0.104458,-0.1927 0.231364,-0.28432 0.349849,-0.27595 z" />
    </g>
  </g>
</svg>
