<?xml version="1.0" encoding="UTF-8" standalone="no"?>
<!-- Created with Inkscape (http://www.inkscape.org/) -->

<svg
   width="263.82101mm"
   height="31.843365mm"
   viewBox="0 0 263.82101 31.843365"
   version="1.1"
   id="svg1"
   inkscape:version="1.3 (0e150ed, 2023-07-21)"
   sodipodi:docname="codevivo_logo_text_color.svg"
   xmlns:inkscape="http://www.inkscape.org/namespaces/inkscape"
   xmlns:sodipodi="http://sodipodi.sourceforge.net/DTD/sodipodi-0.dtd"
   xmlns="http://www.w3.org/2000/svg"
   xmlns:svg="http://www.w3.org/2000/svg">
  <sodipodi:namedview
     id="namedview1"
     pagecolor="#ffffff"
     bordercolor="#000000"
     borderopacity="0.25"
     inkscape:showpageshadow="2"
     inkscape:pageopacity="0.0"
     inkscape:pagecheckerboard="0"
     inkscape:deskcolor="#d1d1d1"
     inkscape:document-units="mm"
     inkscape:zoom="0.29734127"
     inkscape:cx="332.95075"
     inkscape:cy="223.64874"
     inkscape:window-width="2560"
     inkscape:window-height="1412"
     inkscape:window-x="0"
     inkscape:window-y="28"
     inkscape:window-maximized="0"
     inkscape:current-layer="layer1" />
  <defs
     id="defs1" />
  <g
     inkscape:label="Layer 1"
     inkscape:groupmode="layer"
     id="layer1"
     transform="translate(-16.58949,-89.078317)">
    <g
       id="g58"
       inkscape:label="Blue and Gold"
       transform="translate(-2.66263,-60.948309)">
      <g
         id="g21"
         transform="matrix(0.38444883,0,0,0.38444739,13.619784,124.67374)"
         inkscape:label="Double Color Inner Colors"
         style="stroke:#000000;stroke-width:1.29519;stroke-opacity:1">
        <path
           id="path20"
           style="fill:#e09f3e;fill-opacity:1;fill-rule:evenodd;stroke:#e09f3e;stroke-width:0.780339;stroke-dasharray:none;stroke-opacity:1"
           inkscape:label="Outer Circle Gold"
           d="m 48.414056,89.287483 c 8.133309,0.844557 15.566265,4.990837 20.557918,11.467517 0.267601,0.34721 0.306639,0.94737 0.09767,1.33274 l -0.15503,0.28577 c -0.20897,0.38536 -0.578527,0.40392 -0.836641,0.0496 C 63.419417,96.028315 56.278475,91.891823 48.41354,91.032586 47.977765,90.984977 47.623407,90.602282 47.623407,90.163906 V 90.00991 c 0,-0.438376 0.354631,-0.767713 0.79065,-0.722437 z m -0.001,3.286105 c 7.630661,0.891562 14.505376,5.042843 18.847429,11.380702 0.247757,0.36164 0.269426,0.97372 0.06046,1.35909 l -0.198437,0.36587 c -0.208966,0.38536 -0.556982,0.3902 -0.791167,0.0196 C 62.36179,99.417649 55.785428,95.241266 48.412539,94.318661 c -0.434975,-0.05443 -0.7891,-0.441158 -0.7891,-0.879533 v -0.151889 c 0,-0.438374 0.354219,-0.764522 0.789617,-0.713651 z m 23.778877,13.761952 c 0.130317,0.003 0.257572,0.10485 0.348299,0.30437 1.641042,3.6089 2.546463,7.50891 2.66392,11.47165 0.01299,0.43817 0.01403,1.1493 0.0021,1.5875 -0.393282,14.40766 -11.049762,26.48801 -25.295614,28.67681 -0.433273,0.0666 -0.616684,-0.20168 -0.407727,-0.58705 l 0.291972,-0.53847 c 0.208957,-0.38537 0.72894,-0.75741 1.158586,-0.84439 12.790343,-2.58933 22.123545,-13.6628 22.509737,-26.7069 0.01297,-0.43816 0.01235,-1.14935 -0.0015,-1.5875 -0.103819,-3.27217 -0.778595,-6.50104 -1.993677,-9.54102 -0.162698,-0.40704 -0.135574,-1.04554 0.07338,-1.43092 l 0.282154,-0.51986 c 0.104477,-0.19269 0.238135,-0.28759 0.368453,-0.28422 z m -2.014865,3.6897 c 0.118486,0.008 0.22867,0.11702 0.300757,0.32401 0.870799,2.50035 1.363064,5.11647 1.460893,7.76231 0.0162,0.43806 0.01789,1.14938 0.0036,1.5875 -0.38551,11.83071 -8.562126,21.99186 -20.036503,24.89926 -0.424929,0.10767 -0.603207,-0.12879 -0.394291,-0.51418 l 0.355017,-0.65526 c 0.208916,-0.38539 0.720221,-0.79505 1.137399,-0.92966 9.960817,-3.21404 16.844965,-12.33963 17.19895,-22.80016 0.01483,-0.4381 0.01371,-1.14942 -0.0021,-1.5875 -0.06954,-1.9304 -0.363677,-3.84596 -0.876949,-5.70817 -0.116479,-0.4226 -0.05389,-1.07395 0.155029,-1.45935 l 0.348299,-0.64285 c 0.104458,-0.1927 0.231364,-0.28432 0.349849,-0.27595 z" />
        <path
           id="path21"
           style="fill:#007acc;fill-opacity:1;fill-rule:evenodd;stroke:#007acc;stroke-width:0.780339;stroke-dasharray:none;stroke-opacity:1"
           inkscape:label="Outer Circle Blue"
           d="m 41.841212,89.287485 c -8.133309,0.844557 -15.566265,4.990837 -20.557918,11.467515 -0.267601,0.34721 -0.306639,0.94737 -0.09767,1.33274 l 0.15503,0.28577 c 0.20897,0.38536 0.578527,0.40392 0.836641,0.0496 4.658556,-6.394793 11.799498,-10.531286 19.664433,-11.390522 0.435775,-0.04761 0.790133,-0.430305 0.790133,-0.86868 v -0.153996 c 0,-0.438376 -0.354631,-0.767713 -0.79065,-0.722437 z m 0.001,3.286105 c -7.630661,0.891562 -14.505376,5.042842 -18.847429,11.3807 -0.247757,0.36164 -0.269426,0.97372 -0.06046,1.35909 l 0.198437,0.36587 c 0.208966,0.38536 0.556982,0.3902 0.791167,0.0196 3.969551,-6.281199 10.545913,-10.457582 17.918802,-11.380187 0.434975,-0.05443 0.7891,-0.441158 0.7891,-0.879533 v -0.151889 c 0,-0.438375 -0.354219,-0.764523 -0.789617,-0.713651 z m -23.778877,13.76195 c -0.130317,0.003 -0.257572,0.10485 -0.348299,0.30437 -1.641042,3.6089 -2.546463,7.50891 -2.66392,11.47165 -0.01299,0.43817 -0.01403,1.1493 -0.0021,1.5875 0.393282,14.40766 11.049762,26.48801 25.295614,28.67681 0.433273,0.0666 0.616684,-0.20168 0.407727,-0.58705 l -0.291972,-0.53847 c -0.208957,-0.38537 -0.72894,-0.75741 -1.158586,-0.84439 -12.790343,-2.58933 -22.123545,-13.6628 -22.509737,-26.7069 -0.01297,-0.43816 -0.01235,-1.14935 0.0015,-1.5875 0.103819,-3.27217 0.778595,-6.50104 1.993677,-9.54102 0.162698,-0.40704 0.135574,-1.04554 -0.07338,-1.43092 l -0.282154,-0.51986 c -0.104477,-0.19269 -0.238135,-0.28759 -0.368453,-0.28422 z m 2.014865,3.6897 c -0.118486,0.008 -0.22867,0.11702 -0.300757,0.32401 -0.870799,2.50035 -1.363064,5.11647 -1.460893,7.76231 -0.0162,0.43806 -0.01789,1.14938 -0.0036,1.5875 0.38551,11.83071 8.562126,21.99186 20.036503,24.89926 0.424929,0.10767 0.603207,-0.12879 0.394291,-0.51418 l -0.355017,-0.65526 c -0.208916,-0.38539 -0.720221,-0.79505 -1.137399,-0.92966 -9.960817,-3.21404 -16.844965,-12.33963 -17.19895,-22.80016 -0.01483,-0.4381 -0.01371,-1.14942 0.0021,-1.5875 0.06954,-1.9304 0.363677,-3.84596 0.876949,-5.70817 0.116479,-0.4226 0.05389,-1.07395 -0.155029,-1.45935 l -0.348299,-0.64285 c -0.104458,-0.1927 -0.231364,-0.28432 -0.349849,-0.27595 z" />
      </g>
      <g
         id="text23"
         style="font-size:42.3333px;line-height:1;font-family:Montserrat;-inkscape-font-specification:'Montserrat, Normal';font-variant-ligatures:none;letter-spacing:2.64583px;stroke-width:0.264583"
         inkscape:label="Color Text"
         aria-label="codevivo"
         transform="translate(-9.5720197,147.67225)">
        <path
           style="letter-spacing:5.29167px;fill:#007acc"
           d="m 93.054613,33.977353 q -3.301998,0 -5.926662,-1.439333 -2.582332,-1.481665 -4.063997,-4.021663 -1.481666,-2.582332 -1.481666,-5.884329 0,-3.344331 1.481666,-5.884329 1.481665,-2.539998 4.063997,-3.979331 2.624664,-1.439332 5.926662,-1.439332 2.836331,0 5.122329,1.100666 2.285998,1.100666 3.598328,3.301998 l -2.243662,1.523998 q -1.142999,-1.693332 -2.836331,-2.497664 -1.693332,-0.804333 -3.682997,-0.804333 -2.370665,0 -4.275664,1.100666 -1.904998,1.058332 -3.005664,3.005664 -1.100666,1.947332 -1.100666,4.571997 0,2.624664 1.100666,4.571996 1.100666,1.947332 3.005664,3.047998 1.904999,1.058333 4.275664,1.058333 1.989665,0 3.682997,-0.804333 1.693332,-0.804333 2.836331,-2.455332 l 2.243662,1.523999 q -1.31233,2.158999 -3.598328,3.301998 -2.285998,1.100666 -5.122329,1.100666 z m 28.574937,0 q -3.21733,0 -5.79966,-1.439333 -2.54,-1.481665 -4.02166,-4.021663 -1.48167,-2.582332 -1.48167,-5.884329 0,-3.344331 1.48167,-5.884329 1.48166,-2.539998 4.02166,-3.979331 2.54,-1.439332 5.79966,-1.439332 3.302,0 5.842,1.439332 2.58233,1.439333 4.02166,3.979331 1.48167,2.539998 1.48167,5.884329 0,3.301997 -1.48167,5.884329 -1.43933,2.539998 -4.02166,4.021663 -2.58233,1.439333 -5.842,1.439333 z m 0,-2.666998 q 2.413,0 4.27567,-1.058333 1.86266,-1.100666 2.921,-3.047998 1.10066,-1.989665 1.10066,-4.571996 0,-2.624665 -1.10066,-4.571997 -1.05834,-1.947332 -2.921,-3.005664 -1.86267,-1.100666 -4.23333,-1.100666 -2.37067,0 -4.23333,1.100666 -1.86267,1.058332 -2.96333,3.005664 -1.10067,1.947332 -1.10067,4.571997 0,2.582331 1.10067,4.571996 1.10066,1.947332 2.96333,3.047998 1.86266,1.058333 4.19099,1.058333 z m 31.62294,2.666998 q -3.17499,0 -5.71499,-1.439333 -2.49767,-1.439332 -3.937,-3.97933 -1.43933,-2.582331 -1.43933,-5.926662 0,-3.386664 1.43933,-5.926662 1.43933,-2.539999 3.937,-3.936998 2.54,-1.439332 5.71499,-1.439332 2.921,0 5.207,1.312333 2.32833,1.312332 3.683,3.85233 1.397,2.497665 1.397,6.138329 0,3.59833 -1.35467,6.138328 -1.35467,2.539999 -3.683,3.894664 -2.286,1.312333 -5.24933,1.312333 z m 0.21167,-2.666998 q 2.37066,0 4.23333,-1.058333 1.905,-1.100666 2.96333,-3.047998 1.10067,-1.989665 1.10067,-4.571996 0,-2.624665 -1.10067,-4.571997 -1.05833,-1.947332 -2.96333,-3.005664 -1.86267,-1.100666 -4.23333,-1.100666 -2.32833,0 -4.191,1.100666 -1.86266,1.058332 -2.96333,3.005664 -1.10066,1.947332 -1.10066,4.571997 0,2.582331 1.10066,4.571996 1.10067,1.947332 2.96333,3.047998 1.86267,1.058333 4.191,1.058333 z m 8.38199,2.455331 v -6.688662 l 0.29634,-4.48733 -0.42334,-4.48733 V 2.3543763 h 3.00567 V 33.765686 Z m 25.99264,0.211667 q -3.47133,0 -6.096,-1.439333 -2.62466,-1.481665 -4.10633,-4.021663 -1.48166,-2.582332 -1.48166,-5.884329 0,-3.301998 1.397,-5.841996 1.43933,-2.539998 3.89466,-3.97933 2.49767,-1.481666 5.588,-1.481666 3.13266,0 5.54566,1.439332 2.45533,1.396999 3.85233,3.979331 1.397,2.539998 1.397,5.884329 0,0.211666 -0.0423,0.465666 0,0.211667 0,0.465666 H 178.4408 v -2.243665 h 17.73765 l -1.18533,0.889 q 0,-2.412998 -1.05834,-4.275664 -1.01599,-1.904998 -2.79399,-2.963331 -1.778,-1.058332 -4.10633,-1.058332 -2.286,0 -4.10633,1.058332 -1.82034,1.058333 -2.83633,2.963331 -1.016,1.904999 -1.016,4.36033 v 0.465667 q 0,2.539998 1.10066,4.48733 1.143,1.904998 3.13267,3.005664 2.03199,1.058333 4.61433,1.058333 2.03199,0 3.76766,-0.719667 1.778,-0.719666 3.048,-2.201331 l 1.69333,1.947332 q -1.48167,1.777998 -3.72533,2.709331 -2.20133,0.931333 -4.86833,0.931333 z"
           id="path33" />
      </g>
      <g
         id="g44">
        <path
           style="font-weight:500;font-size:42.3333px;line-height:1;font-family:Montserrat;-inkscape-font-specification:'Montserrat Medium';font-variant-ligatures:none;letter-spacing:1.32292px;fill:#e09f3e;stroke-width:0.264583"
           d="m 214.80503,33.765686 -9.82133,-22.43665 h 4.23333 l 8.72066,20.319985 h -2.032 l 8.89,-20.319985 h 3.97933 l -9.82133,22.43665 z m 19.10282,0 v -22.43665 h 4.064 v 22.43665 z m 2.032,-24.1088127 c -0.79022,0 -1.45344,-0.2540003 -1.98967,-0.762 -0.508,-0.5079996 -0.762,-1.128888 -0.762,-1.8626652 0,-0.7619995 0.254,-1.396999 0.762,-1.9049986 0.53623,-0.5079996 1.19945,-0.7619994 1.98967,-0.7619994 0.79022,0 1.43933,0.2539998 1.94733,0.7619994 0.53622,0.4797774 0.80433,1.0865547 0.80433,1.820332 0,0.7619994 -0.254,1.41111 -0.762,1.9473318 -0.508,0.5079997 -1.17122,0.762 -1.98966,0.762 z m 16.98622,24.1088127 -9.82132,-22.43665 h 4.23333 l 4.08176,9.510888 4.6389,10.809097 h -2.032 l 8.88999,-20.319985 h 3.97933 l -9.82132,22.43665 z m 28.07743,0.254 c -2.25777,0 -4.26155,-0.493889 -6.01133,-1.481666 -1.74977,-0.987777 -3.13266,-2.342442 -4.14866,-4.063997 -1.016,-1.749776 -1.524,-3.72533 -1.524,-5.926662 0,-2.229554 0.508,-4.205108 1.524,-5.926662 1.016,-1.721554 2.39889,-3.062109 4.14866,-4.021664 1.74978,-0.987777 3.75356,-1.481665 6.01133,-1.481665 2.22955,0 4.21922,0.493888 5.969,1.481665 1.77799,0.959555 3.16088,2.30011 4.14866,4.021664 1.016,1.693332 1.524,3.668886 1.524,5.926662 0,2.229554 -0.508,4.205108 -1.524,5.926662 -0.98778,1.721555 -2.37067,3.07622 -4.14866,4.063997 -1.74978,0.987777 -3.73945,1.481666 -5.969,1.481666 z m 0,-3.555997 c 1.43933,0 2.72344,-0.324555 3.85233,-0.973666 1.15711,-0.649111 2.06022,-1.566332 2.70933,-2.751665 0.64911,-1.213555 0.97367,-2.610554 0.97367,-4.190997 0,-1.608665 -0.32456,-2.991553 -0.97367,-4.148663 -0.64911,-1.185333 -1.55222,-2.102554 -2.70933,-2.751665 -1.12889,-0.649111 -2.413,-0.973666 -3.85233,-0.973666 -1.43933,0 -2.72344,0.324555 -3.85233,0.973666 -1.12889,0.649111 -2.032,1.566332 -2.70933,2.751665 -0.67733,1.15711 -1.016,2.539998 -1.016,4.148663 0,1.580443 0.33867,2.977442 1.016,4.190997 0.67733,1.185333 1.58044,2.102554 2.70933,2.751665 1.12889,0.649111 2.413,0.973666 3.85233,0.973666 z"
           id="path34"
           sodipodi:nodetypes="ccccccccccccccscscscscsccccccccccsscsscsccsccssccsccsscscss"
           transform="translate(-9.5720196,147.67225)" />
      </g>
    </g>
  </g>
</svg>
