<?xml version="1.0" encoding="UTF-8" standalone="no"?>
<!-- Created with Inkscape (http://www.inkscape.org/) -->

<svg
   width="263.25549mm"
   height="31.747778mm"
   viewBox="0 0 263.25549 31.747778"
   version="1.1"
   id="svg1"
   inkscape:version="1.3 (0e150ed, 2023-07-21)"
   sodipodi:docname="codevivo_logo_text_black.svg"
   xmlns:inkscape="http://www.inkscape.org/namespaces/inkscape"
   xmlns:sodipodi="http://sodipodi.sourceforge.net/DTD/sodipodi-0.dtd"
   xmlns="http://www.w3.org/2000/svg"
   xmlns:svg="http://www.w3.org/2000/svg">
  <sodipodi:namedview
     id="namedview1"
     pagecolor="#ffffff"
     bordercolor="#000000"
     borderopacity="0.25"
     inkscape:showpageshadow="2"
     inkscape:pageopacity="0.0"
     inkscape:pagecheckerboard="0"
     inkscape:deskcolor="#d1d1d1"
     inkscape:document-units="mm"
     inkscape:zoom="0.29734127"
     inkscape:cx="585.18617"
     inkscape:cy="196.74363"
     inkscape:window-width="2560"
     inkscape:window-height="1412"
     inkscape:window-x="0"
     inkscape:window-y="28"
     inkscape:window-maximized="0"
     inkscape:current-layer="layer1" />
  <defs
     id="defs1" />
  <g
     inkscape:label="Layer 1"
     inkscape:groupmode="layer"
     id="layer1"
     transform="translate(49.741667,-96.308329)">
    <g
       id="text19"
       style="font-size:42.3333px;line-height:1;font-family:Montserrat;-inkscape-font-specification:'Montserrat, Normal';font-variant-ligatures:none;letter-spacing:2.64583px;stroke-width:0.264583"
       inkscape:label="Black"
       aria-label="codevivo"
       transform="translate(-70.442311,9.74741)">
      <g
         id="g57">
        <path
           id="path18"
           style="fill:#000000;fill-opacity:1;fill-rule:evenodd;stroke:#000000;stroke-width:0.3;stroke-dasharray:none;stroke-opacity:1"
           inkscape:label="Outer Circle Black"
           d="m 29.472833,199.82283 c -3.098473,0.32174 -5.930147,1.90131 -7.831772,4.36866 -0.101946,0.13228 -0.116817,0.36091 -0.03721,0.50772 l 0.05906,0.10887 c 0.07961,0.1468 0.220397,0.15388 0.318728,0.0189 1.774729,-2.43615 4.495156,-4.01199 7.491389,-4.33933 0.166014,-0.0181 0.30101,-0.16393 0.30101,-0.33093 v -0.0587 c 0,-0.16701 -0.1351,-0.29247 -0.301207,-0.27522 z m 2.443319,0 c -0.137137,0.0147 -0.240571,0.12909 -0.240571,0.27522 v 0.0587 c 0,0.167 0.134996,0.31279 0.30101,0.33093 2.996233,0.32733 5.71666,1.90317 7.491389,4.33933 0.09833,0.13498 0.239118,0.1279 0.318727,-0.0189 l 0.05906,-0.10887 c 0.07961,-0.14681 0.06474,-0.37544 -0.03721,-0.50771 -1.901625,-2.46736 -4.733299,-4.04692 -7.831772,-4.36867 -0.02076,-0.002 -0.04104,-0.002 -0.06064,0 z m -2.38229,1.25109 c -0.01956,-0.002 -0.0399,-0.002 -0.06063,8e-4 -2.906984,0.33964 -5.525989,1.92112 -7.180142,4.33559 -0.09439,0.13777 -0.102641,0.37094 -0.02303,0.51775 l 0.0756,0.13938 c 0.07961,0.14681 0.212188,0.14867 0.301404,0.007 1.512244,-2.39288 4.017588,-3.98392 6.826371,-4.33539 0.165709,-0.0207 0.300617,-0.16807 0.300617,-0.33507 v -0.0579 c 0,-0.14612 -0.10323,-0.25957 -0.240179,-0.27266 z m 2.382094,0 c -0.136949,0.0131 -0.240375,0.12653 -0.240375,0.27266 v 0.0579 c 0,0.16701 0.134907,0.31434 0.300616,0.33507 2.808783,0.35148 5.314127,1.94251 6.826371,4.33539 0.08922,0.14119 0.221796,0.13933 0.301404,-0.007 l 0.0756,-0.13938 c 0.07961,-0.14681 0.07135,-0.37999 -0.02303,-0.51776 -1.654153,-2.41447 -4.273158,-3.99594 -7.180142,-4.33559 -0.02073,-0.002 -0.04087,-0.003 -0.06044,-8e-4 z m -11.501575,5.24353 c -0.04964,0.001 -0.09812,0.04 -0.132689,0.11596 -0.625172,1.37484 -0.970104,2.86059 -1.01485,4.37023 -0.0049,0.16693 -0.0053,0.43784 -8e-4,0.60478 0.149825,5.48873 4.209537,10.09086 9.636651,10.9247 0.16506,0.0254 0.234933,-0.0768 0.155328,-0.22363 l -0.11123,-0.20514 c -0.0796,-0.14681 -0.277698,-0.28854 -0.441376,-0.32168 -4.872622,-0.98643 -8.428216,-5.20498 -8.57534,-10.17425 -0.0049,-0.16692 -0.0047,-0.43786 6.1e-4,-0.60478 0.03955,-1.24656 0.296615,-2.47663 0.759513,-3.63474 0.06198,-0.15507 0.05165,-0.39831 -0.02795,-0.54512 l -0.10749,-0.19805 c -0.0398,-0.0734 -0.09072,-0.10956 -0.140366,-0.10828 z m 20.620859,0 c -0.04959,-0.001 -0.100419,0.035 -0.14017,0.10828 l -0.107489,0.19805 c -0.0796,0.14681 -0.08994,0.39005 -0.02796,0.54512 0.462899,1.15811 0.719962,2.38818 0.759514,3.63474 0.0053,0.16692 0.0053,0.43786 3.8e-4,0.60478 -0.147124,4.96927 -3.702718,9.18782 -8.575339,10.17425 -0.163679,0.0331 -0.361772,0.17487 -0.441377,0.32168 l -0.11123,0.20514 c -0.0796,0.14681 -0.0097,0.24901 0.155328,0.22363 5.427114,-0.83384 9.486826,-5.43597 9.636652,-10.9247 0.0045,-0.16694 0.0042,-0.43785 -8e-4,-0.60478 -0.04475,-1.50964 -0.389678,-2.99539 -1.014851,-4.37023 -0.03452,-0.0759 -0.08291,-0.11472 -0.132492,-0.11596 z m -19.853273,1.40563 c -0.04514,0.003 -0.08712,0.0446 -0.114577,0.12343 -0.331741,0.95253 -0.519275,1.94918 -0.556544,2.95713 -0.0062,0.16689 -0.0068,0.43787 -0.0014,0.60478 0.146864,4.50702 3.261843,8.37801 7.633133,9.48561 0.161881,0.041 0.229798,-0.0491 0.150209,-0.19588 l -0.135247,-0.24963 c -0.07959,-0.14681 -0.274377,-0.30288 -0.433305,-0.35416 -3.794682,-1.22442 -6.417281,-4.70091 -6.552136,-8.68594 -0.0056,-0.1669 -0.0052,-0.43789 8e-4,-0.60478 0.02649,-0.7354 0.138548,-1.46516 0.334084,-2.17458 0.04437,-0.161 0.02053,-0.40913 -0.05906,-0.55595 l -0.132688,-0.2449 c -0.0398,-0.0734 -0.08814,-0.10832 -0.133279,-0.10513 z m 19.085687,0 c -0.04514,-0.003 -0.09348,0.0317 -0.133279,0.10513 l -0.132688,0.2449 c -0.07959,0.14682 -0.103434,0.39495 -0.05906,0.55595 0.195536,0.70942 0.307591,1.43918 0.334083,2.17458 0.006,0.16689 0.0064,0.43788 8e-4,0.60478 -0.134854,3.98503 -2.757453,7.46152 -6.552135,8.68594 -0.158929,0.0513 -0.353716,0.20735 -0.433305,0.35416 l -0.135248,0.24963 c -0.07959,0.14682 -0.01167,0.2369 0.15021,0.19588 4.37129,-1.1076 7.486269,-4.97859 7.633133,-9.48561 0.0054,-0.16691 0.0048,-0.43789 -0.0014,-0.60478 -0.03727,-1.00795 -0.224804,-2.0046 -0.556544,-2.95713 -0.02746,-0.0788 -0.06944,-0.12038 -0.114577,-0.12343 z"
           transform="translate(1.5877785,-104.17793)" />
        <g
           id="g56">
          <path
             style="letter-spacing:5.29167px"
             d="m 84.365602,118.1839 q -3.301997,0 -5.926662,-1.43934 -2.582331,-1.48166 -4.063997,-4.02166 -1.481665,-2.58233 -1.481665,-5.88433 0,-3.34433 1.481665,-5.88433 1.481666,-2.539996 4.063997,-3.979329 2.624665,-1.439332 5.926662,-1.439332 2.836332,0 5.12233,1.100666 2.285998,1.100666 3.59833,3.301998 l -2.243665,1.523997 q -1.142999,-1.693331 -2.836331,-2.497663 -1.693332,-0.804333 -3.682997,-0.804333 -2.370665,0 -4.275663,1.100666 -1.904999,1.05833 -3.005665,3.00566 -1.100666,1.94734 -1.100666,4.572 0,2.62467 1.100666,4.572 1.100666,1.94733 3.005665,3.04799 1.904998,1.05834 4.275663,1.05834 1.989665,0 3.682997,-0.80434 1.693332,-0.80433 2.836331,-2.45533 l 2.243665,1.524 q -1.312332,2.159 -3.59833,3.302 -2.285998,1.10067 -5.12233,1.10067 z m 28.574938,0 q -3.21733,0 -5.79966,-1.43934 -2.54,-1.48166 -4.02166,-4.02166 -1.48167,-2.58233 -1.48167,-5.88433 0,-3.34433 1.48167,-5.88433 1.48166,-2.539996 4.02166,-3.979329 2.54,-1.439332 5.79966,-1.439332 3.302,0 5.842,1.439332 2.58233,1.439333 4.02166,3.979329 1.48167,2.54 1.48167,5.88433 0,3.302 -1.48167,5.88433 -1.43933,2.54 -4.02166,4.02166 -2.58233,1.43934 -5.842,1.43934 z m 0,-2.667 q 2.413,0 4.27567,-1.05834 1.86266,-1.10066 2.92099,-3.04799 1.10067,-1.98967 1.10067,-4.572 0,-2.62466 -1.10067,-4.572 -1.05833,-1.94733 -2.92099,-3.00566 -1.86267,-1.100666 -4.23333,-1.100666 -2.37067,0 -4.23333,1.100666 -1.86267,1.05833 -2.96333,3.00566 -1.10067,1.94734 -1.10067,4.572 0,2.58233 1.10067,4.572 1.10066,1.94733 2.96333,3.04799 1.86266,1.05834 4.19099,1.05834 z m 31.62294,2.667 q -3.17499,0 -5.71499,-1.43934 -2.49767,-1.43933 -3.937,-3.97933 -1.43933,-2.58233 -1.43933,-5.92666 0,-3.38666 1.43933,-5.92666 1.43933,-2.54 3.937,-3.936999 2.54,-1.439332 5.71499,-1.439332 2.921,0 5.207,1.312333 2.32833,1.312332 3.683,3.852328 1.397,2.49767 1.397,6.13833 0,3.59833 -1.35467,6.13833 -1.35467,2.54 -3.683,3.89466 -2.286,1.31234 -5.24933,1.31234 z m 0.21167,-2.667 q 2.37066,0 4.23333,-1.05834 1.905,-1.10066 2.96333,-3.04799 1.10067,-1.98967 1.10067,-4.572 0,-2.62466 -1.10067,-4.572 -1.05833,-1.94733 -2.96333,-3.00566 -1.86267,-1.100666 -4.23333,-1.100666 -2.32833,0 -4.191,1.100666 -1.86266,1.05833 -2.96333,3.00566 -1.10066,1.94734 -1.10066,4.572 0,2.58233 1.10066,4.572 1.10067,1.94733 2.96333,3.04799 1.86267,1.05834 4.191,1.05834 z m 8.38199,2.45533 v -6.68866 l 0.29634,-4.48733 -0.42334,-4.48733 V 86.560919 h 3.00567 v 31.411311 z m 25.99264,0.21167 q -3.47133,0 -6.096,-1.43934 -2.62466,-1.48166 -4.10633,-4.02166 -1.48166,-2.58233 -1.48166,-5.88433 0,-3.302 1.397,-5.84199 1.43933,-2.540003 3.89466,-3.979335 2.49766,-1.481666 5.588,-1.481666 3.13266,0 5.54566,1.439332 2.45533,1.396999 3.85233,3.979329 1.397,2.54 1.397,5.88433 0,0.21167 -0.0423,0.46567 0,0.21166 0,0.46566 h -19.34631 v -2.24366 h 17.73765 l -1.18533,0.889 q 0,-2.413 -1.05834,-4.27567 -1.016,-1.90499 -2.79399,-2.963327 -1.778,-1.058332 -4.10633,-1.058332 -2.286,0 -4.10633,1.058332 -1.82034,1.058337 -2.83634,2.963327 -1.01599,1.905 -1.01599,4.36033 v 0.46567 q 0,2.54 1.10066,4.48733 1.143,1.905 3.13267,3.00566 2.03199,1.05834 4.61433,1.05834 2.03199,0 3.76766,-0.71967 1.778,-0.71966 3.048,-2.20133 l 1.69333,1.94733 q -1.48167,1.778 -3.72533,2.70933 -2.20133,0.93134 -4.86833,0.93134 z"
             id="path35" />
          <path
             style="font-weight:500;-inkscape-font-specification:'Montserrat Medium';letter-spacing:1.32292px"
             d="m 206.11602,117.97223 -9.82133,-22.436651 h 4.23333 l 8.72066,20.319981 h -2.032 l 8.88999,-20.319981 h 3.97934 l -9.82133,22.436651 z m 19.10282,0 V 95.535579 h 4.064 v 22.436651 z m 2.032,-24.108815 c -0.79023,0 -1.45345,-0.254 -1.98967,-0.761999 -0.508,-0.507999 -0.762,-1.128888 -0.762,-1.862665 0,-0.761999 0.254,-1.396999 0.762,-1.904999 0.53622,-0.507999 1.19944,-0.761999 1.98967,-0.761999 0.79022,0 1.43933,0.254 1.94733,0.761999 0.53622,0.479777 0.80433,1.086555 0.80433,1.820332 0,0.761999 -0.254,1.41111 -0.762,1.947332 -0.508,0.507999 -1.17122,0.761999 -1.98966,0.761999 z m 16.98622,24.108815 -9.82132,-22.436651 h 4.23333 l 8.72066,20.319981 h -2.032 l 8.88999,-20.319981 h 3.97933 l -9.82132,22.436651 z m 28.07743,0.254 c -2.25777,0 -4.26155,-0.49389 -6.01133,-1.48167 -1.74977,-0.98777 -3.13266,-2.34244 -4.14866,-4.06399 -1.016,-1.74978 -1.524,-3.72534 -1.524,-5.92667 0,-2.22955 0.508,-4.20511 1.524,-5.92666 1.016,-1.721553 2.39889,-3.062107 4.14866,-4.021662 1.74978,-0.987777 3.75356,-1.481665 6.01133,-1.481665 2.22955,0 4.21922,0.493888 5.969,1.481665 1.77799,0.959555 3.16088,2.300109 4.14866,4.021662 1.016,1.69333 1.524,3.66889 1.524,5.92666 0,2.22955 -0.508,4.20511 -1.524,5.92667 -0.98778,1.72155 -2.37067,3.07622 -4.14866,4.06399 -1.74978,0.98778 -3.73945,1.48167 -5.969,1.48167 z m 0,-3.556 c 1.43933,0 2.72344,-0.32455 3.85233,-0.97366 1.15711,-0.64911 2.06022,-1.56634 2.70933,-2.75167 0.64911,-1.21355 0.97367,-2.61055 0.97367,-4.191 0,-1.60866 -0.32456,-2.99155 -0.97367,-4.14866 -0.64911,-1.18533 -1.55222,-2.10255 -2.70933,-2.751664 -1.12889,-0.649111 -2.413,-0.973666 -3.85233,-0.973666 -1.43933,0 -2.72344,0.324555 -3.85233,0.973666 -1.12889,0.649114 -2.032,1.566334 -2.70933,2.751664 -0.67733,1.15711 -1.016,2.54 -1.016,4.14866 0,1.58045 0.33867,2.97745 1.016,4.191 0.67733,1.18533 1.58044,2.10256 2.70933,2.75167 1.12889,0.64911 2.413,0.97366 3.85233,0.97366 z"
             id="path36"
             sodipodi:nodetypes="ccccccccccccccscscscscscccccccccsscsscsccsccssccsccsscscss" />
        </g>
      </g>
    </g>
  </g>
</svg>
