<?xml version="1.0" encoding="UTF-8" standalone="no"?>
<!-- Created with Inkscape (http://www.inkscape.org/) -->

<svg
   width="23.223909mm"
   height="22.816732mm"
   viewBox="0 0 23.223909 22.816732"
   version="1.1"
   id="svg1"
   inkscape:version="1.3 (0e150ed, 2023-07-21)"
   sodipodi:docname="codevivo_icon_black.svg"
   xmlns:inkscape="http://www.inkscape.org/namespaces/inkscape"
   xmlns:sodipodi="http://sodipodi.sourceforge.net/DTD/sodipodi-0.dtd"
   xmlns="http://www.w3.org/2000/svg"
   xmlns:svg="http://www.w3.org/2000/svg">
  <sodipodi:namedview
     id="namedview1"
     pagecolor="#ffffff"
     bordercolor="#000000"
     borderopacity="0.25"
     inkscape:showpageshadow="2"
     inkscape:pageopacity="0.0"
     inkscape:pagecheckerboard="0"
     inkscape:deskcolor="#d1d1d1"
     inkscape:document-units="mm"
     inkscape:zoom="0.29734127"
     inkscape:cx="336.31389"
     inkscape:cy="25.223542"
     inkscape:window-width="2560"
     inkscape:window-height="1412"
     inkscape:window-x="0"
     inkscape:window-y="28"
     inkscape:window-maximized="0"
     inkscape:current-layer="layer1" />
  <defs
     id="defs1" />
  <g
     inkscape:label="Layer 1"
     inkscape:groupmode="layer"
     id="layer1"
     transform="translate(-15.874998,-141.55207)">
    <path
       id="path54"
       style="fill:#000000;fill-opacity:1;fill-rule:evenodd;stroke:#000000;stroke-width:0.3;stroke-dasharray:none;stroke-opacity:1"
       inkscape:label="Logo Black"
       d="m 26.23488,141.70501 c -3.09848,0.32174 -5.93015,1.90131 -7.83177,4.36866 -0.10195,0.13228 -0.11682,0.36091 -0.0372,0.50772 l 0.0591,0.10887 c 0.0796,0.1468 0.22039,0.15388 0.31873,0.0189 1.77472,-2.43615 4.49515,-4.01199 7.49138,-4.33933 0.16602,-0.0181 0.30101,-0.16393 0.30101,-0.33093 v -0.0587 c 0,-0.16701 -0.1351,-0.29247 -0.3012,-0.27522 z m 2.44332,0 c -0.13714,0.0147 -0.24057,0.12909 -0.24057,0.27522 v 0.0587 c 0,0.167 0.13499,0.31279 0.30101,0.33093 2.99623,0.32733 5.71666,1.90317 7.49138,4.33933 0.0983,0.13498 0.23912,0.1279 0.31873,-0.0189 l 0.0591,-0.10887 c 0.0796,-0.14681 0.0647,-0.37544 -0.0372,-0.50771 -1.90162,-2.46736 -4.73329,-4.04692 -7.83177,-4.36867 -0.0208,-0.002 -0.041,-0.002 -0.0606,0 z m -2.38229,1.25109 c -0.0196,-0.002 -0.0399,-0.002 -0.0606,8e-4 -2.90698,0.33964 -5.52599,1.92112 -7.18014,4.33559 -0.0944,0.13777 -0.10264,0.37094 -0.023,0.51775 l 0.0756,0.13938 c 0.0796,0.14681 0.21219,0.14867 0.30141,0.007 1.51224,-2.39288 4.01759,-3.98392 6.82637,-4.33539 0.16571,-0.0207 0.30062,-0.16807 0.30062,-0.33507 v -0.0579 c 0,-0.14612 -0.10323,-0.25957 -0.24018,-0.27266 z m 2.38209,0 c -0.13695,0.0131 -0.24037,0.12653 -0.24037,0.27266 v 0.0579 c 0,0.16701 0.1349,0.31434 0.30061,0.33507 2.80878,0.35148 5.31413,1.94251 6.82637,4.33539 0.0892,0.14119 0.2218,0.13933 0.30141,-0.007 l 0.0756,-0.13938 c 0.0796,-0.14681 0.0714,-0.37999 -0.023,-0.51776 -1.65415,-2.41447 -4.27316,-3.99594 -7.18014,-4.33559 -0.0207,-0.002 -0.0409,-0.003 -0.0604,-8e-4 z m -11.50157,5.24353 c -0.0497,10e-4 -0.0981,0.0399 -0.13269,0.11596 -0.62518,1.37484 -0.97011,2.86059 -1.01485,4.37023 -0.005,0.16693 -0.005,0.43784 -8e-4,0.60478 0.14982,5.48873 4.20953,10.09086 9.63665,10.9247 0.16506,0.0254 0.23493,-0.0768 0.15533,-0.22363 l -0.11123,-0.20514 c -0.0796,-0.14681 -0.2777,-0.28854 -0.44138,-0.32168 -4.87262,-0.98643 -8.42822,-5.20498 -8.57534,-10.17425 -0.005,-0.16692 -0.005,-0.43786 6.1e-4,-0.60478 0.0395,-1.24656 0.29661,-2.47663 0.75951,-3.63474 0.062,-0.15507 0.0516,-0.39831 -0.028,-0.54512 l -0.10749,-0.19805 c -0.0398,-0.0734 -0.0907,-0.10956 -0.14037,-0.10828 z m 20.62085,0 c -0.0496,-0.001 -0.10041,0.035 -0.14017,0.10828 l -0.10748,0.19805 c -0.0796,0.14681 -0.0899,0.39005 -0.028,0.54512 0.4629,1.15811 0.71996,2.38818 0.75951,3.63474 0.005,0.16692 0.005,0.43786 3.9e-4,0.60478 -0.14713,4.96927 -3.70272,9.18782 -8.57534,10.17425 -0.16368,0.0331 -0.36178,0.17487 -0.44138,0.32168 l -0.11123,0.20514 c -0.0796,0.14681 -0.01,0.24901 0.15533,0.22363 5.42711,-0.83384 9.48682,-5.43597 9.63665,-10.9247 0.005,-0.16694 0.004,-0.43785 -8e-4,-0.60478 -0.0447,-1.50964 -0.38968,-2.99539 -1.01485,-4.37023 -0.0345,-0.0759 -0.0829,-0.11472 -0.13249,-0.11596 z m -19.85327,1.40563 c -0.0451,0.003 -0.0871,0.0446 -0.11458,0.12343 -0.33174,0.95253 -0.51927,1.94918 -0.55654,2.95713 -0.006,0.16689 -0.007,0.43787 -0.001,0.60478 0.14686,4.50702 3.26184,8.37801 7.63313,9.48561 0.16188,0.041 0.2298,-0.0491 0.15021,-0.19588 l -0.13525,-0.24963 c -0.0796,-0.14681 -0.27437,-0.30288 -0.4333,-0.35416 -3.79468,-1.22442 -6.41728,-4.70091 -6.55214,-8.68594 -0.006,-0.1669 -0.005,-0.43789 8e-4,-0.60478 0.0265,-0.7354 0.13855,-1.46516 0.33409,-2.17458 0.0444,-0.161 0.0205,-0.40913 -0.0591,-0.55595 l -0.13269,-0.2449 c -0.0398,-0.0734 -0.0881,-0.10832 -0.13328,-0.10513 z m 19.08569,0 c -0.0451,-0.003 -0.0935,0.0317 -0.13328,0.10513 l -0.13269,0.2449 c -0.0796,0.14682 -0.10343,0.39495 -0.0591,0.55595 0.19554,0.70942 0.30759,1.43918 0.33409,2.17458 0.006,0.16689 0.006,0.43788 8e-4,0.60478 -0.13486,3.98503 -2.75746,7.46152 -6.55214,8.68594 -0.15893,0.0513 -0.35372,0.20735 -0.4333,0.35416 l -0.13525,0.24963 c -0.0796,0.14682 -0.0117,0.2369 0.15021,0.19588 4.37129,-1.1076 7.48627,-4.97859 7.63313,-9.48561 0.005,-0.16691 0.005,-0.43789 -0.001,-0.60478 -0.0373,-1.00795 -0.2248,-2.0046 -0.55655,-2.95713 -0.0275,-0.0788 -0.0694,-0.12038 -0.11457,-0.12343 z" />
  </g>
</svg>
